<?xml version="1.0" encoding="UTF-8" standalone="no"?>
<!DOCTYPE svg PUBLIC "-//W3C//DTD SVG 1.1//EN"
 "http://www.w3.org/Graphics/SVG/1.1/DTD/svg11.dtd">
<!-- Generated by graphviz version 2.38.0 (20140413.2041)
 -->
<!-- Title: G Pages: 1 -->
<svg width="829pt" height="1158pt"
 viewBox="0.00 0.00 828.77 1158.00" xmlns="http://www.w3.org/2000/svg" xmlns:xlink="http://www.w3.org/1999/xlink">
<g id="graph0" class="graph" transform="scale(1 1) rotate(0) translate(4 1154)">
<title>G</title>
<polygon fill="white" stroke="none" points="-4,4 -4,-1154 824.769,-1154 824.769,4 -4,4"/>
<g id="clust1" class="cluster"><title>cluster_Global</title>
<path fill="none" stroke="gray" d="M173.291,-44C173.291,-44 800.769,-44 800.769,-44 806.769,-44 812.769,-50 812.769,-56 812.769,-56 812.769,-1130 812.769,-1130 812.769,-1136 806.769,-1142 800.769,-1142 800.769,-1142 173.291,-1142 173.291,-1142 167.291,-1142 161.291,-1136 161.291,-1130 161.291,-1130 161.291,-56 161.291,-56 161.291,-50 167.291,-44 173.291,-44"/>
<text text-anchor="middle" x="487.03" y="-1129.2" font-family="Times,serif" font-size="11.00" fill="gray">Global</text>
</g>
<g id="clust2" class="cluster"><title>cluster_\SlightPHP</title>
<path fill="none" stroke="gray" d="M181.291,-178C181.291,-178 593.53,-178 593.53,-178 599.53,-178 605.53,-184 605.53,-190 605.53,-190 605.53,-1102 605.53,-1102 605.53,-1108 599.53,-1114 593.53,-1114 593.53,-1114 181.291,-1114 181.291,-1114 175.291,-1114 169.291,-1108 169.291,-1102 169.291,-1102 169.291,-190 169.291,-190 169.291,-184 175.291,-178 181.291,-178"/>
<text text-anchor="middle" x="387.41" y="-1101.2" font-family="Times,serif" font-size="11.00" fill="gray">SlightPHP</text>
</g>
<!-- \\SlightPHP\\Tpl -->
<g id="node1" class="node"><title>\\SlightPHP\\Tpl</title>
<polygon fill="none" stroke="black" points="548.53,-1032 494.53,-1032 494.53,-996 548.53,-996 548.53,-1032"/>
<text text-anchor="middle" x="521.53" y="-1011.2" font-family="Courier,monospace" font-size="11.00">Tpl</text>
</g>
<!-- \\SlightPHP\\Rest_Http -->
<g id="node2" class="node"><title>\\SlightPHP\\Rest_Http</title>
<polygon fill="none" stroke="black" points="560.03,-708 483.03,-708 483.03,-672 560.03,-672 560.03,-708"/>
<text text-anchor="middle" x="521.53" y="-687.2" font-family="Courier,monospace" font-size="11.00">Rest_Http</text>
</g>
<!-- \\SlightPHP\\SimpleCaptcha -->
<g id="node3" class="node"><title>\\SlightPHP\\SimpleCaptcha</title>
<polygon fill="none" stroke="black" points="573.53,-978 469.53,-978 469.53,-942 573.53,-942 573.53,-978"/>
<text text-anchor="middle" x="521.53" y="-957.2" font-family="Courier,monospace" font-size="11.00">SimpleCaptcha</text>
</g>
<!-- \\SlightPHP\\CacheObject -->
<g id="node4" class="node"><title>\\SlightPHP\\CacheObject</title>
<polygon fill="none" stroke="black" points="298.791,-870 207.791,-870 207.791,-834 298.791,-834 298.791,-870"/>
<text text-anchor="start" x="219.291" y="-855.2" font-family="Courier,monospace" font-size="11.00">«abstract»</text>
<text text-anchor="start" x="215.791" y="-843.2" font-family="Courier,monospace" font-size="11.00">CacheObject</text>
</g>
<!-- \\SlightPHP\\Cache_File -->
<g id="node5" class="node"><title>\\SlightPHP\\Cache_File</title>
<polygon fill="none" stroke="black" points="563.53,-924 479.53,-924 479.53,-888 563.53,-888 563.53,-924"/>
<text text-anchor="middle" x="521.53" y="-903.2" font-family="Courier,monospace" font-size="11.00">Cache_File</text>
</g>
<!-- \\SlightPHP\\Cache_File&#45;&gt;\\SlightPHP\\CacheObject -->
<g id="edge5" class="edge"><title>\\SlightPHP\\Cache_File&#45;&gt;\\SlightPHP\\CacheObject</title>
<path fill="none" stroke="black" d="M479.514,-897.681C433.799,-888.409 359.66,-873.371 309.024,-863.101"/>
<polygon fill="none" stroke="black" points="309.407,-859.608 298.911,-861.05 308.015,-866.468 309.407,-859.608"/>
</g>
<!-- \\SlightPHP\\Cache_MemcacheObject -->
<g id="node6" class="node"><title>\\SlightPHP\\Cache_MemcacheObject</title>
<polygon fill="none" stroke="black" points="597.53,-870 445.53,-870 445.53,-834 597.53,-834 597.53,-870"/>
<text text-anchor="middle" x="521.53" y="-849.2" font-family="Courier,monospace" font-size="11.00">Cache_MemcacheObject</text>
</g>
<!-- \\SlightPHP\\Cache_MemcacheEngine -->
<g id="node7" class="node"><title>\\SlightPHP\\Cache_MemcacheEngine</title>
<polygon fill="none" stroke="black" points="329.291,-762 177.291,-762 177.291,-726 329.291,-726 329.291,-762"/>
<text text-anchor="middle" x="253.291" y="-741.2" font-family="Courier,monospace" font-size="11.00">Cache_MemcacheEngine</text>
</g>
<!-- \\Memcache -->
<g id="node42" class="node"><title>\\Memcache</title>
<ellipse fill="none" stroke="black" cx="52.6453" cy="-744" rx="52.7911" ry="18"/>
<text text-anchor="middle" x="52.6453" y="-740.3" font-family="Times,serif" font-size="14.00" fill="gray">\Memcache</text>
</g>
<!-- \\SlightPHP\\Cache_MemcacheEngine&#45;&gt;\\Memcache -->
<g id="edge6" class="edge"><title>\\SlightPHP\\Cache_MemcacheEngine&#45;&gt;\\Memcache</title>
<path fill="none" stroke="black" d="M177.191,-744C156.795,-744 134.948,-744 115.383,-744"/>
<polygon fill="none" stroke="black" points="115.379,-740.5 105.379,-744 115.379,-747.5 115.379,-740.5"/>
</g>
<!-- \\SlightPHP\\Cache_Memcache -->
<g id="node8" class="node"><title>\\SlightPHP\\Cache_Memcache</title>
<polygon fill="none" stroke="black" points="577.03,-762 466.03,-762 466.03,-726 577.03,-726 577.03,-762"/>
<text text-anchor="middle" x="521.53" y="-741.2" font-family="Courier,monospace" font-size="11.00">Cache_Memcache</text>
</g>
<!-- \\SlightPHP\\Cache_Memcache&#45;&gt;\\SlightPHP\\Cache_MemcacheEngine -->
<g id="edge7" class="edge"><title>\\SlightPHP\\Cache_Memcache&#45;&gt;\\SlightPHP\\Cache_MemcacheEngine</title>
<path fill="none" stroke="black" d="M466.01,-744C429.609,-744 380.992,-744 339.527,-744"/>
<polygon fill="none" stroke="black" points="339.426,-740.5 329.426,-744 339.426,-747.5 339.426,-740.5"/>
</g>
<!-- \\SlightPHP\\Cache_APC -->
<g id="node9" class="node"><title>\\SlightPHP\\Cache_APC</title>
<polygon fill="none" stroke="black" points="560.03,-816 483.03,-816 483.03,-780 560.03,-780 560.03,-816"/>
<text text-anchor="middle" x="521.53" y="-795.2" font-family="Courier,monospace" font-size="11.00">Cache_APC</text>
</g>
<!-- \\SlightPHP\\Cache_APC&#45;&gt;\\SlightPHP\\CacheObject -->
<g id="edge8" class="edge"><title>\\SlightPHP\\Cache_APC&#45;&gt;\\SlightPHP\\CacheObject</title>
<path fill="none" stroke="black" d="M482.949,-805.622C437.663,-814.807 361.2,-830.316 309.28,-840.847"/>
<polygon fill="none" stroke="black" points="308.344,-837.465 299.239,-842.883 309.735,-844.326 308.344,-837.465"/>
</g>
<!-- \\SlightPHP\\Thumbnail -->
<g id="node10" class="node"><title>\\SlightPHP\\Thumbnail</title>
<polygon fill="none" stroke="black" points="291.791,-1086 214.791,-1086 214.791,-1050 291.791,-1050 291.791,-1086"/>
<text text-anchor="middle" x="253.291" y="-1065.2" font-family="Courier,monospace" font-size="11.00">Thumbnail</text>
</g>
<!-- \\SlightPHP\\WMThumbnail -->
<g id="node11" class="node"><title>\\SlightPHP\\WMThumbnail</title>
<polygon fill="none" stroke="black" points="567.03,-1086 476.03,-1086 476.03,-1050 567.03,-1050 567.03,-1086"/>
<text text-anchor="middle" x="521.53" y="-1065.2" font-family="Courier,monospace" font-size="11.00">WMThumbnail</text>
</g>
<!-- \\SlightPHP\\WMThumbnail&#45;&gt;\\SlightPHP\\Thumbnail -->
<g id="edge11" class="edge"><title>\\SlightPHP\\WMThumbnail&#45;&gt;\\SlightPHP\\Thumbnail</title>
<path fill="none" stroke="black" d="M475.968,-1068C427.874,-1068 351.556,-1068 302.199,-1068"/>
<polygon fill="none" stroke="black" points="302.096,-1064.5 292.096,-1068 302.096,-1071.5 302.096,-1064.5"/>
</g>
<!-- \\SlightPHP\\PHPMailer -->
<g id="node12" class="node"><title>\\SlightPHP\\PHPMailer</title>
<polygon fill="none" stroke="black" points="560.03,-222 483.03,-222 483.03,-186 560.03,-186 560.03,-222"/>
<text text-anchor="middle" x="521.53" y="-201.2" font-family="Courier,monospace" font-size="11.00">PHPMailer</text>
</g>
<!-- \\SlightPHP\\POP3 -->
<g id="node13" class="node"><title>\\SlightPHP\\POP3</title>
<polygon fill="none" stroke="black" points="548.53,-600 494.53,-600 494.53,-564 548.53,-564 548.53,-600"/>
<text text-anchor="middle" x="521.53" y="-579.2" font-family="Courier,monospace" font-size="11.00">POP3</text>
</g>
<!-- \\SlightPHP\\SMTP -->
<g id="node14" class="node"><title>\\SlightPHP\\SMTP</title>
<polygon fill="none" stroke="black" points="548.53,-546 494.53,-546 494.53,-510 548.53,-510 548.53,-546"/>
<text text-anchor="middle" x="521.53" y="-525.2" font-family="Courier,monospace" font-size="11.00">SMTP</text>
</g>
<!-- \\SlightPHP\\DbData -->
<g id="node15" class="node"><title>\\SlightPHP\\DbData</title>
<polygon fill="none" stroke="black" points="550.03,-492 493.03,-492 493.03,-456 550.03,-456 550.03,-492"/>
<text text-anchor="middle" x="521.53" y="-471.2" font-family="Courier,monospace" font-size="11.00">DbData</text>
</g>
<!-- \\SlightPHP\\Db -->
<g id="node16" class="node"><title>\\SlightPHP\\Db</title>
<polygon fill="none" stroke="black" points="548.53,-654 494.53,-654 494.53,-618 548.53,-618 548.53,-654"/>
<text text-anchor="middle" x="521.53" y="-633.2" font-family="Courier,monospace" font-size="11.00">Db</text>
</g>
<!-- \\SlightPHP\\DbMysqli -->
<g id="node17" class="node"><title>\\SlightPHP\\DbMysqli</title>
<polygon fill="none" stroke="black" points="557.03,-384 486.03,-384 486.03,-348 557.03,-348 557.03,-384"/>
<text text-anchor="middle" x="521.53" y="-363.2" font-family="Courier,monospace" font-size="11.00">DbMysqli</text>
</g>
<!-- \\SlightPHP\\DbEngine -->
<g id="node21" class="node"><title>\\SlightPHP\\DbEngine</title>
<polygon fill="none" stroke="black" points="288.791,-330 217.791,-330 217.791,-294 288.791,-294 288.791,-330"/>
<text text-anchor="middle" x="253.291" y="-309.2" font-family="Courier,monospace" font-size="11.00">DbEngine</text>
</g>
<!-- \\SlightPHP\\DbMysqli&#45;&gt;\\SlightPHP\\DbEngine -->
<g id="edge13" class="edge"><title>\\SlightPHP\\DbMysqli&#45;&gt;\\SlightPHP\\DbEngine</title>
<path fill="none" stroke="black" stroke-dasharray="1,5" d="M485.997,-358.996C438.247,-349.311 351.996,-331.817 299.264,-321.122"/>
<polygon fill="none" stroke="black" points="299.682,-317.635 289.185,-319.078 298.29,-324.496 299.682,-317.635"/>
</g>
<!-- \\SlightPHP\\DbMysql -->
<g id="node18" class="node"><title>\\SlightPHP\\DbMysql</title>
<polygon fill="none" stroke="black" points="553.53,-330 489.53,-330 489.53,-294 553.53,-294 553.53,-330"/>
<text text-anchor="middle" x="521.53" y="-309.2" font-family="Courier,monospace" font-size="11.00">DbMysql</text>
</g>
<!-- \\SlightPHP\\DbMysql&#45;&gt;\\SlightPHP\\DbEngine -->
<g id="edge14" class="edge"><title>\\SlightPHP\\DbMysql&#45;&gt;\\SlightPHP\\DbEngine</title>
<path fill="none" stroke="black" stroke-dasharray="1,5" d="M489.468,-312C442.53,-312 353.286,-312 299.25,-312"/>
<polygon fill="none" stroke="black" points="298.936,-308.5 288.936,-312 298.936,-315.5 298.936,-308.5"/>
</g>
<!-- \\SlightPHP\\DbPDO -->
<g id="node19" class="node"><title>\\SlightPHP\\DbPDO</title>
<polygon fill="none" stroke="black" points="548.53,-276 494.53,-276 494.53,-240 548.53,-240 548.53,-276"/>
<text text-anchor="middle" x="521.53" y="-255.2" font-family="Courier,monospace" font-size="11.00">DbPDO</text>
</g>
<!-- \\SlightPHP\\DbPDO&#45;&gt;\\SlightPHP\\DbEngine -->
<g id="edge15" class="edge"><title>\\SlightPHP\\DbPDO&#45;&gt;\\SlightPHP\\DbEngine</title>
<path fill="none" stroke="black" stroke-dasharray="1,5" d="M494.517,-263.276C449.187,-272.47 355.217,-291.53 299.183,-302.895"/>
<polygon fill="none" stroke="black" points="298.287,-299.505 289.182,-304.923 299.678,-306.365 298.287,-299.505"/>
</g>
<!-- \\SlightPHP\\SphinxClient -->
<g id="node20" class="node"><title>\\SlightPHP\\SphinxClient</title>
<polygon fill="none" stroke="black" points="570.53,-438 472.53,-438 472.53,-402 570.53,-402 570.53,-438"/>
<text text-anchor="middle" x="521.53" y="-417.2" font-family="Courier,monospace" font-size="11.00">SphinxClient</text>
</g>
<!-- \\SlightPHP -->
<g id="node22" class="node"><title>\\SlightPHP</title>
<polygon fill="none" stroke="black" points="797.769,-1114 720.769,-1114 720.769,-1078 797.769,-1078 797.769,-1114"/>
<text text-anchor="middle" x="759.269" y="-1093.2" font-family="Courier,monospace" font-size="11.00">SlightPHP</text>
</g>
<!-- \\SThumbnail -->
<g id="node23" class="node"><title>\\SThumbnail</title>
<polygon fill="none" stroke="black" points="801.269,-1060 717.269,-1060 717.269,-1024 801.269,-1024 801.269,-1060"/>
<text text-anchor="middle" x="759.269" y="-1039.2" font-family="Courier,monospace" font-size="11.00">SThumbnail</text>
</g>
<!-- \\SThumbnail&#45;&gt;\\SlightPHP\\WMThumbnail -->
<g id="edge1" class="edge"><title>\\SThumbnail&#45;&gt;\\SlightPHP\\WMThumbnail</title>
<path fill="none" stroke="black" d="M717.207,-1046.53C678.371,-1050.81 619.832,-1057.27 577.088,-1061.98"/>
<polygon fill="none" stroke="black" points="576.687,-1058.51 567.131,-1063.08 577.454,-1065.46 576.687,-1058.51"/>
</g>
<!-- \\SHttp -->
<g id="node24" class="node"><title>\\SHttp</title>
<polygon fill="none" stroke="black" points="786.269,-1006 732.269,-1006 732.269,-970 786.269,-970 786.269,-1006"/>
<text text-anchor="middle" x="759.269" y="-985.2" font-family="Courier,monospace" font-size="11.00">SHttp</text>
</g>
<!-- \\STpl -->
<g id="node25" class="node"><title>\\STpl</title>
<polygon fill="none" stroke="black" points="786.269,-952 732.269,-952 732.269,-916 786.269,-916 786.269,-952"/>
<text text-anchor="middle" x="759.269" y="-931.2" font-family="Courier,monospace" font-size="11.00">STpl</text>
</g>
<!-- \\STpl&#45;&gt;\\SlightPHP\\Tpl -->
<g id="edge2" class="edge"><title>\\STpl&#45;&gt;\\SlightPHP\\Tpl</title>
<path fill="none" stroke="black" d="M732.058,-947.797C708.847,-959.558 673.778,-976.221 641.769,-987 614.434,-996.205 582.521,-1003.25 558.592,-1007.83"/>
<polygon fill="none" stroke="black" points="557.726,-1004.43 548.534,-1009.7 559.006,-1011.31 557.726,-1004.43"/>
</g>
<!-- \\SCaptcha -->
<g id="node26" class="node"><title>\\SCaptcha</title>
<polygon fill="none" stroke="black" points="794.769,-898 723.769,-898 723.769,-862 794.769,-862 794.769,-898"/>
<text text-anchor="middle" x="759.269" y="-877.2" font-family="Courier,monospace" font-size="11.00">SCaptcha</text>
</g>
<!-- \\SCaptcha&#45;&gt;\\SlightPHP\\SimpleCaptcha -->
<g id="edge3" class="edge"><title>\\SCaptcha&#45;&gt;\\SlightPHP\\SimpleCaptcha</title>
<path fill="none" stroke="black" d="M723.593,-898.038C700.813,-909.317 670.093,-923.462 641.769,-933 623.184,-939.259 602.482,-944.517 583.612,-948.681"/>
<polygon fill="none" stroke="black" points="582.682,-945.301 573.638,-950.82 584.15,-952.145 582.682,-945.301"/>
</g>
<!-- \\SJson -->
<g id="node27" class="node"><title>\\SJson</title>
<polygon fill="none" stroke="black" points="786.269,-844 732.269,-844 732.269,-808 786.269,-808 786.269,-844"/>
<text text-anchor="middle" x="759.269" y="-823.2" font-family="Courier,monospace" font-size="11.00">SJson</text>
</g>
<!-- \\SRestClient -->
<g id="node28" class="node"><title>\\SRestClient</title>
<polygon fill="none" stroke="black" points="804.769,-790 713.769,-790 713.769,-754 804.769,-754 804.769,-790"/>
<text text-anchor="middle" x="759.269" y="-769.2" font-family="Courier,monospace" font-size="11.00">SRestClient</text>
</g>
<!-- \\SRestClient&#45;&gt;\\SlightPHP\\Rest_Http -->
<g id="edge4" class="edge"><title>\\SRestClient&#45;&gt;\\SlightPHP\\Rest_Http</title>
<path fill="none" stroke="black" d="M724.932,-753.868C702.067,-742.033 670.739,-726.984 641.769,-717 618.625,-709.024 592.132,-702.754 570.006,-698.272"/>
<polygon fill="none" stroke="black" points="570.662,-694.835 560.174,-696.339 569.311,-701.703 570.662,-694.835"/>
</g>
<!-- \\SDb -->
<g id="node29" class="node"><title>\\SDb</title>
<polygon fill="none" stroke="black" points="786.269,-736 732.269,-736 732.269,-700 786.269,-700 786.269,-736"/>
<text text-anchor="middle" x="759.269" y="-715.2" font-family="Courier,monospace" font-size="11.00">SDb</text>
</g>
<!-- \\SDb&#45;&gt;\\SlightPHP\\Db -->
<g id="edge9" class="edge"><title>\\SDb&#45;&gt;\\SlightPHP\\Db</title>
<path fill="none" stroke="black" d="M732.124,-703.628C708.955,-691.39 673.911,-674.077 641.769,-663 614.5,-653.602 582.583,-646.574 558.636,-642.047"/>
<polygon fill="none" stroke="black" points="559.036,-638.562 548.569,-640.202 557.774,-645.448 559.036,-638.562"/>
</g>
<!-- \\SSphinx -->
<g id="node30" class="node"><title>\\SSphinx</title>
<polygon fill="none" stroke="black" points="791.269,-682 727.269,-682 727.269,-646 791.269,-646 791.269,-682"/>
<text text-anchor="middle" x="759.269" y="-661.2" font-family="Courier,monospace" font-size="11.00">SSphinx</text>
</g>
<!-- \\SSphinx&#45;&gt;\\SlightPHP\\SphinxClient -->
<g id="edge10" class="edge"><title>\\SSphinx&#45;&gt;\\SlightPHP\\SphinxClient</title>
<path fill="none" stroke="black" d="M726.963,-648.722C722.098,-645.357 717.468,-641.446 713.769,-637 656.021,-567.574 709.92,-506.248 641.769,-447 624.968,-432.393 601.917,-425.224 580.559,-421.849"/>
<polygon fill="none" stroke="black" points="580.945,-418.369 570.57,-420.516 580.02,-425.308 580.945,-418.369"/>
</g>
<!-- \\SLog -->
<g id="node31" class="node"><title>\\SLog</title>
<polygon fill="none" stroke="black" points="786.269,-628 732.269,-628 732.269,-592 786.269,-592 786.269,-628"/>
<text text-anchor="middle" x="759.269" y="-607.2" font-family="Courier,monospace" font-size="11.00">SLog</text>
</g>
<!-- \\SUtil -->
<g id="node32" class="node"><title>\\SUtil</title>
<polygon fill="none" stroke="black" points="786.269,-574 732.269,-574 732.269,-538 786.269,-538 786.269,-574"/>
<text text-anchor="middle" x="759.269" y="-553.2" font-family="Courier,monospace" font-size="11.00">SUtil</text>
</g>
<!-- \\SLunar -->
<g id="node33" class="node"><title>\\SLunar</title>
<polygon fill="none" stroke="black" points="787.769,-520 730.769,-520 730.769,-484 787.769,-484 787.769,-520"/>
<text text-anchor="middle" x="759.269" y="-499.2" font-family="Courier,monospace" font-size="11.00">SLunar</text>
</g>
<!-- \\SRoute -->
<g id="node34" class="node"><title>\\SRoute</title>
<polygon fill="none" stroke="black" points="787.769,-466 730.769,-466 730.769,-430 787.769,-430 787.769,-466"/>
<text text-anchor="middle" x="759.269" y="-445.2" font-family="Courier,monospace" font-size="11.00">SRoute</text>
</g>
<!-- \\SRedis -->
<g id="node35" class="node"><title>\\SRedis</title>
<polygon fill="none" stroke="black" points="787.769,-412 730.769,-412 730.769,-376 787.769,-376 787.769,-412"/>
<text text-anchor="middle" x="759.269" y="-391.2" font-family="Courier,monospace" font-size="11.00">SRedis</text>
</g>
<!-- \\SMail -->
<g id="node36" class="node"><title>\\SMail</title>
<polygon fill="none" stroke="black" points="786.269,-358 732.269,-358 732.269,-322 786.269,-322 786.269,-358"/>
<text text-anchor="middle" x="759.269" y="-337.2" font-family="Courier,monospace" font-size="11.00">SMail</text>
</g>
<!-- \\SMail&#45;&gt;\\SlightPHP\\PHPMailer -->
<g id="edge12" class="edge"><title>\\SMail&#45;&gt;\\SlightPHP\\PHPMailer</title>
<path fill="none" stroke="black" d="M731.945,-325.849C725.732,-322.024 719.309,-317.645 713.769,-313 676.606,-281.837 683.456,-255.788 641.769,-231 620.253,-218.206 593.255,-211.47 570.392,-207.925"/>
<polygon fill="none" stroke="black" points="570.599,-204.42 560.212,-206.511 569.636,-211.354 570.599,-204.42"/>
</g>
<!-- \\SLanguage -->
<g id="node37" class="node"><title>\\SLanguage</title>
<polygon fill="none" stroke="black" points="797.769,-304 720.769,-304 720.769,-268 797.769,-268 797.769,-304"/>
<text text-anchor="middle" x="759.269" y="-283.2" font-family="Courier,monospace" font-size="11.00">SLanguage</text>
</g>
<!-- \\SRestServer -->
<g id="node38" class="node"><title>\\SRestServer</title>
<polygon fill="none" stroke="black" points="804.769,-250 713.769,-250 713.769,-214 804.769,-214 804.769,-250"/>
<text text-anchor="start" x="725.269" y="-235.2" font-family="Courier,monospace" font-size="11.00">«abstract»</text>
<text text-anchor="start" x="721.769" y="-223.2" font-family="Courier,monospace" font-size="11.00">SRestServer</text>
</g>
<!-- \\SCache -->
<g id="node39" class="node"><title>\\SCache</title>
<polygon fill="none" stroke="black" points="787.769,-196 730.769,-196 730.769,-160 787.769,-160 787.769,-196"/>
<text text-anchor="middle" x="759.269" y="-175.2" font-family="Courier,monospace" font-size="11.00">SCache</text>
</g>
<!-- \\SlightPHP\\Cache_MemCache -->
<g id="node43" class="node"><title>\\SlightPHP\\Cache_MemCache</title>
<ellipse fill="none" stroke="black" cx="521.53" cy="-18" rx="120.479" ry="18"/>
<text text-anchor="middle" x="521.53" y="-14.3" font-family="Times,serif" font-size="14.00" fill="gray">\SlightPHP\Cache_MemCache</text>
</g>
<!-- \\SCache&#45;&gt;\\SlightPHP\\Cache_MemCache -->
<g id="edge16" class="edge"><title>\\SCache&#45;&gt;\\SlightPHP\\Cache_MemCache</title>
<path fill="none" stroke="black" d="M730.33,-161.413C724.803,-158.029 719.072,-154.448 713.769,-151 657.271,-114.264 593.294,-68.999 555.515,-41.8743"/>
<polygon fill="none" stroke="black" points="557.113,-38.7124 546.951,-35.7141 553.025,-44.3949 557.113,-38.7124"/>
</g>
<!-- \\SError -->
<g id="node40" class="node"><title>\\SError</title>
<polygon fill="none" stroke="black" points="787.769,-142 730.769,-142 730.769,-106 787.769,-106 787.769,-142"/>
<text text-anchor="middle" x="759.269" y="-121.2" font-family="Courier,monospace" font-size="11.00">SError</text>
</g>
<!-- \\SConfig -->
<g id="node41" class="node"><title>\\SConfig</title>
<polygon fill="none" stroke="black" points="791.269,-88 727.269,-88 727.269,-52 791.269,-52 791.269,-88"/>
<text text-anchor="middle" x="759.269" y="-67.2" font-family="Courier,monospace" font-size="11.00">SConfig</text>
</g>
</g>
</svg>
