<?xml version="1.0" encoding="UTF-8" standalone="no"?>
<!DOCTYPE svg PUBLIC "-//W3C//DTD SVG 1.1//EN"
 "http://www.w3.org/Graphics/SVG/1.1/DTD/svg11.dtd">
<!-- Generated by graphviz version 2.36.0 (20140111.2315)
 -->
<!-- Title: G Pages: 1 -->
<svg width="652pt" height="1698pt"
 viewBox="0.00 0.00 652.00 1698.00" xmlns="http://www.w3.org/2000/svg" xmlns:xlink="http://www.w3.org/1999/xlink">
<g id="graph0" class="graph" transform="scale(1 1) rotate(0) translate(4 1694)">
<title>G</title>
<polygon fill="white" stroke="none" points="-4,4 -4,-1694 648,-1694 648,4 -4,4"/>
<g id="clust1" class="cluster"><title>cluster_Global</title>
<path fill="none" stroke="gray" d="M30,-44C30,-44 624,-44 624,-44 630,-44 636,-50 636,-56 636,-56 636,-1670 636,-1670 636,-1676 630,-1682 624,-1682 624,-1682 30,-1682 30,-1682 24,-1682 18,-1676 18,-1670 18,-1670 18,-56 18,-56 18,-50 24,-44 30,-44"/>
<text text-anchor="middle" x="327" y="-1669.2" font-family="Times,serif" font-size="11.00" fill="gray">Global</text>
</g>
<!-- \\SlightPHP -->
<g id="node1" class="node"><title>\\SlightPHP</title>
<polygon fill="none" stroke="black" points="590.5,-1654 513.5,-1654 513.5,-1618 590.5,-1618 590.5,-1654"/>
<text text-anchor="middle" x="552" y="-1633.2" font-family="Courier,monospace" font-size="11.00">SlightPHP</text>
</g>
<!-- \\WMThumbnail -->
<g id="node2" class="node"><title>\\WMThumbnail</title>
<polygon fill="none" stroke="black" points="348.5,-1492 257.5,-1492 257.5,-1456 348.5,-1456 348.5,-1492"/>
<text text-anchor="middle" x="303" y="-1471.2" font-family="Courier,monospace" font-size="11.00">WMThumbnail</text>
</g>
<!-- \\Thumbnail -->
<g id="node3" class="node"><title>\\Thumbnail</title>
<polygon fill="none" stroke="black" points="103.5,-1492 26.5,-1492 26.5,-1456 103.5,-1456 103.5,-1492"/>
<text text-anchor="middle" x="65" y="-1471.2" font-family="Courier,monospace" font-size="11.00">Thumbnail</text>
</g>
<!-- \\WMThumbnail&#45;&gt;\\Thumbnail -->
<g id="edge1" class="edge"><title>\\WMThumbnail&#45;&gt;\\Thumbnail</title>
<path fill="none" stroke="black" d="M257.333,-1474C216.433,-1474 156.061,-1474 114.111,-1474"/>
<polygon fill="none" stroke="black" points="113.866,-1470.5 103.866,-1474 113.866,-1477.5 113.866,-1470.5"/>
</g>
<!-- \\SUtil -->
<g id="node4" class="node"><title>\\SUtil</title>
<polygon fill="none" stroke="black" points="579,-1600 525,-1600 525,-1564 579,-1564 579,-1600"/>
<text text-anchor="middle" x="552" y="-1579.2" font-family="Courier,monospace" font-size="11.00">SUtil</text>
</g>
<!-- \\SMail -->
<g id="node5" class="node"><title>\\SMail</title>
<polygon fill="none" stroke="black" points="579,-1546 525,-1546 525,-1510 579,-1510 579,-1546"/>
<text text-anchor="middle" x="552" y="-1525.2" font-family="Courier,monospace" font-size="11.00">SMail</text>
</g>
<!-- \\PHPMailer -->
<g id="node22" class="node"><title>\\PHPMailer</title>
<polygon fill="none" stroke="black" points="341.5,-1546 264.5,-1546 264.5,-1510 341.5,-1510 341.5,-1546"/>
<text text-anchor="middle" x="303" y="-1525.2" font-family="Courier,monospace" font-size="11.00">PHPMailer</text>
</g>
<!-- \\SMail&#45;&gt;\\PHPMailer -->
<g id="edge2" class="edge"><title>\\SMail&#45;&gt;\\PHPMailer</title>
<path fill="none" stroke="black" d="M524.567,-1528C483.467,-1528 403.621,-1528 352.113,-1528"/>
<polygon fill="none" stroke="black" points="351.892,-1524.5 341.892,-1528 351.892,-1531.5 351.892,-1524.5"/>
</g>
<!-- \\SThumbnail -->
<g id="node6" class="node"><title>\\SThumbnail</title>
<polygon fill="none" stroke="black" points="594,-1492 510,-1492 510,-1456 594,-1456 594,-1492"/>
<text text-anchor="middle" x="552" y="-1471.2" font-family="Courier,monospace" font-size="11.00">SThumbnail</text>
</g>
<!-- \\SThumbnail&#45;&gt;\\WMThumbnail -->
<g id="edge3" class="edge"><title>\\SThumbnail&#45;&gt;\\WMThumbnail</title>
<path fill="none" stroke="black" d="M509.936,-1474C468.487,-1474 404.24,-1474 358.538,-1474"/>
<polygon fill="none" stroke="black" points="358.505,-1470.5 348.505,-1474 358.505,-1477.5 358.505,-1470.5"/>
</g>
<!-- \\Cache_File -->
<g id="node7" class="node"><title>\\Cache_File</title>
<polygon fill="none" stroke="black" points="594,-1438 510,-1438 510,-1402 594,-1402 594,-1438"/>
<text text-anchor="middle" x="552" y="-1417.2" font-family="Courier,monospace" font-size="11.00">Cache_File</text>
</g>
<!-- \\CacheObject -->
<g id="node11" class="node"><title>\\CacheObject</title>
<polygon fill="none" stroke="black" points="348.5,-1384 257.5,-1384 257.5,-1348 348.5,-1348 348.5,-1384"/>
<text text-anchor="start" x="269" y="-1369.2" font-family="Courier,monospace" font-size="11.00">«abstract»</text>
<text text-anchor="start" x="265.5" y="-1357.2" font-family="Courier,monospace" font-size="11.00">CacheObject</text>
</g>
<!-- \\Cache_File&#45;&gt;\\CacheObject -->
<g id="edge4" class="edge"><title>\\Cache_File&#45;&gt;\\CacheObject</title>
<path fill="none" stroke="black" d="M509.936,-1411.02C468.487,-1401.96 404.24,-1387.91 358.538,-1377.92"/>
<polygon fill="none" stroke="black" points="359.022,-1374.45 348.505,-1375.73 357.526,-1381.28 359.022,-1374.45"/>
</g>
<!-- \\Cache_MemcacheObject -->
<g id="node8" class="node"><title>\\Cache_MemcacheObject</title>
<polygon fill="none" stroke="black" points="628,-1384 476,-1384 476,-1348 628,-1348 628,-1384"/>
<text text-anchor="middle" x="552" y="-1363.2" font-family="Courier,monospace" font-size="11.00">Cache_MemcacheObject</text>
</g>
<!-- \\Cache_MemcacheEngine -->
<g id="node9" class="node"><title>\\Cache_MemcacheEngine</title>
<polygon fill="none" stroke="black" points="379,-1276 227,-1276 227,-1240 379,-1240 379,-1276"/>
<text text-anchor="middle" x="303" y="-1255.2" font-family="Courier,monospace" font-size="11.00">Cache_MemcacheEngine</text>
</g>
<!-- \\Memcache -->
<g id="node42" class="node"><title>\\Memcache</title>
<ellipse fill="none" stroke="black" cx="65" cy="-18" rx="64.9885" ry="18"/>
<text text-anchor="middle" x="65" y="-14.3" font-family="Times,serif" font-size="14.00" fill="gray">\Memcache</text>
</g>
<!-- \\Cache_MemcacheEngine&#45;&gt;\\Memcache -->
<g id="edge5" class="edge"><title>\\Cache_MemcacheEngine&#45;&gt;\\Memcache</title>
<path fill="none" stroke="black" d="M226.897,-1249.04C217.325,-1244.89 208.589,-1239.09 202,-1231 34.5073,-1025.45 290.474,-251.075 130,-40 128.584,-38.1381 127.002,-36.4328 125.287,-34.8709"/>
<polygon fill="none" stroke="black" points="127.184,-31.923 117.029,-28.9011 123.083,-37.596 127.184,-31.923"/>
</g>
<!-- \\Cache_Memcache -->
<g id="node10" class="node"><title>\\Cache_Memcache</title>
<polygon fill="none" stroke="black" points="607.5,-1276 496.5,-1276 496.5,-1240 607.5,-1240 607.5,-1276"/>
<text text-anchor="middle" x="552" y="-1255.2" font-family="Courier,monospace" font-size="11.00">Cache_Memcache</text>
</g>
<!-- \\Cache_Memcache&#45;&gt;\\Cache_MemcacheEngine -->
<g id="edge6" class="edge"><title>\\Cache_Memcache&#45;&gt;\\Cache_MemcacheEngine</title>
<path fill="none" stroke="black" d="M496.489,-1258C465.197,-1258 425.206,-1258 389.79,-1258"/>
<polygon fill="none" stroke="black" points="389.449,-1254.5 379.449,-1258 389.449,-1261.5 389.449,-1254.5"/>
</g>
<!-- \\Cache_APC -->
<g id="node12" class="node"><title>\\Cache_APC</title>
<polygon fill="none" stroke="black" points="590.5,-1330 513.5,-1330 513.5,-1294 590.5,-1294 590.5,-1330"/>
<text text-anchor="middle" x="552" y="-1309.2" font-family="Courier,monospace" font-size="11.00">Cache_APC</text>
</g>
<!-- \\Cache_APC&#45;&gt;\\CacheObject -->
<g id="edge7" class="edge"><title>\\Cache_APC&#45;&gt;\\CacheObject</title>
<path fill="none" stroke="black" d="M513.486,-1320.2C472.246,-1329.22 405.612,-1343.79 358.586,-1354.07"/>
<polygon fill="none" stroke="black" points="357.591,-1350.7 348.569,-1356.26 359.086,-1357.54 357.591,-1350.7"/>
</g>
<!-- \\Tpl -->
<g id="node13" class="node"><title>\\Tpl</title>
<polygon fill="none" stroke="black" points="330,-1222 276,-1222 276,-1186 330,-1186 330,-1222"/>
<text text-anchor="middle" x="303" y="-1201.2" font-family="Courier,monospace" font-size="11.00">Tpl</text>
</g>
<!-- \\SimpleCaptcha -->
<g id="node14" class="node"><title>\\SimpleCaptcha</title>
<polygon fill="none" stroke="black" points="355,-466 251,-466 251,-430 355,-430 355,-466"/>
<text text-anchor="middle" x="303" y="-445.2" font-family="Courier,monospace" font-size="11.00">SimpleCaptcha</text>
</g>
<!-- \\STpl -->
<g id="node15" class="node"><title>\\STpl</title>
<polygon fill="none" stroke="black" points="579,-1222 525,-1222 525,-1186 579,-1186 579,-1222"/>
<text text-anchor="middle" x="552" y="-1201.2" font-family="Courier,monospace" font-size="11.00">STpl</text>
</g>
<!-- \\STpl&#45;&gt;\\Tpl -->
<g id="edge8" class="edge"><title>\\STpl&#45;&gt;\\Tpl</title>
<path fill="none" stroke="black" d="M524.567,-1204C480.183,-1204 390.616,-1204 340.344,-1204"/>
<polygon fill="none" stroke="black" points="340.243,-1200.5 330.243,-1204 340.243,-1207.5 340.243,-1200.5"/>
</g>
<!-- \\SLog -->
<g id="node16" class="node"><title>\\SLog</title>
<polygon fill="none" stroke="black" points="579,-1168 525,-1168 525,-1132 579,-1132 579,-1168"/>
<text text-anchor="middle" x="552" y="-1147.2" font-family="Courier,monospace" font-size="11.00">SLog</text>
</g>
<!-- \\SphinxClient -->
<g id="node17" class="node"><title>\\SphinxClient</title>
<polygon fill="none" stroke="black" points="352,-1006 254,-1006 254,-970 352,-970 352,-1006"/>
<text text-anchor="middle" x="303" y="-985.2" font-family="Courier,monospace" font-size="11.00">SphinxClient</text>
</g>
<!-- \\Rest_Http -->
<g id="node18" class="node"><title>\\Rest_Http</title>
<polygon fill="none" stroke="black" points="341.5,-520 264.5,-520 264.5,-484 341.5,-484 341.5,-520"/>
<text text-anchor="middle" x="303" y="-499.2" font-family="Courier,monospace" font-size="11.00">Rest_Http</text>
</g>
<!-- \\SDb -->
<g id="node19" class="node"><title>\\SDb</title>
<polygon fill="none" stroke="black" points="579,-1114 525,-1114 525,-1078 579,-1078 579,-1114"/>
<text text-anchor="middle" x="552" y="-1093.2" font-family="Courier,monospace" font-size="11.00">SDb</text>
</g>
<!-- \\Db -->
<g id="node27" class="node"><title>\\Db</title>
<polygon fill="none" stroke="black" points="330,-1114 276,-1114 276,-1078 330,-1078 330,-1114"/>
<text text-anchor="middle" x="303" y="-1093.2" font-family="Courier,monospace" font-size="11.00">Db</text>
</g>
<!-- \\SDb&#45;&gt;\\Db -->
<g id="edge9" class="edge"><title>\\SDb&#45;&gt;\\Db</title>
<path fill="none" stroke="black" d="M524.567,-1096C480.183,-1096 390.616,-1096 340.344,-1096"/>
<polygon fill="none" stroke="black" points="340.243,-1092.5 330.243,-1096 340.243,-1099.5 340.243,-1092.5"/>
</g>
<!-- \\SRestServer -->
<g id="node20" class="node"><title>\\SRestServer</title>
<polygon fill="none" stroke="black" points="597.5,-1060 506.5,-1060 506.5,-1024 597.5,-1024 597.5,-1060"/>
<text text-anchor="start" x="518" y="-1045.2" font-family="Courier,monospace" font-size="11.00">«abstract»</text>
<text text-anchor="start" x="514.5" y="-1033.2" font-family="Courier,monospace" font-size="11.00">SRestServer</text>
</g>
<!-- \\SSphinx -->
<g id="node21" class="node"><title>\\SSphinx</title>
<polygon fill="none" stroke="black" points="584,-1006 520,-1006 520,-970 584,-970 584,-1006"/>
<text text-anchor="middle" x="552" y="-985.2" font-family="Courier,monospace" font-size="11.00">SSphinx</text>
</g>
<!-- \\SSphinx&#45;&gt;\\SphinxClient -->
<g id="edge10" class="edge"><title>\\SSphinx&#45;&gt;\\SphinxClient</title>
<path fill="none" stroke="black" d="M519.717,-988C480.33,-988 411.867,-988 362.623,-988"/>
<polygon fill="none" stroke="black" points="362.424,-984.5 352.424,-988 362.424,-991.5 362.424,-984.5"/>
</g>
<!-- \\SMTP -->
<g id="node23" class="node"><title>\\SMTP</title>
<polygon fill="none" stroke="black" points="579,-952 525,-952 525,-916 579,-916 579,-952"/>
<text text-anchor="middle" x="552" y="-931.2" font-family="Courier,monospace" font-size="11.00">SMTP</text>
</g>
<!-- \\POP3 -->
<g id="node24" class="node"><title>\\POP3</title>
<polygon fill="none" stroke="black" points="579,-898 525,-898 525,-862 579,-862 579,-898"/>
<text text-anchor="middle" x="552" y="-877.2" font-family="Courier,monospace" font-size="11.00">POP3</text>
</g>
<!-- \\DbObject -->
<g id="node25" class="node"><title>\\DbObject</title>
<polygon fill="none" stroke="black" points="345,-763 261,-763 261,-727 345,-727 345,-763"/>
<text text-anchor="start" x="269" y="-748.2" font-family="Courier,monospace" font-size="11.00">«abstract»</text>
<text text-anchor="start" x="275.5" y="-736.2" font-family="Courier,monospace" font-size="11.00">DbObject</text>
</g>
<!-- \\DbData -->
<g id="node26" class="node"><title>\\DbData</title>
<polygon fill="none" stroke="black" points="580.5,-844 523.5,-844 523.5,-808 580.5,-808 580.5,-844"/>
<text text-anchor="middle" x="552" y="-823.2" font-family="Courier,monospace" font-size="11.00">DbData</text>
</g>
<!-- \\Db_PDO -->
<g id="node28" class="node"><title>\\Db_PDO</title>
<polygon fill="none" stroke="black" points="580.5,-790 523.5,-790 523.5,-754 580.5,-754 580.5,-790"/>
<text text-anchor="middle" x="552" y="-769.2" font-family="Courier,monospace" font-size="11.00">Db_PDO</text>
</g>
<!-- \\Db_PDO&#45;&gt;\\DbObject -->
<g id="edge11" class="edge"><title>\\Db_PDO&#45;&gt;\\DbObject</title>
<path fill="none" stroke="black" d="M523.146,-768.955C482.542,-764.517 406.398,-756.193 355.436,-750.623"/>
<polygon fill="none" stroke="black" points="355.603,-747.12 345.281,-749.513 354.842,-754.079 355.603,-747.12"/>
</g>
<!-- \\Db_Mysql -->
<g id="node29" class="node"><title>\\Db_Mysql</title>
<polygon fill="none" stroke="black" points="587.5,-736 516.5,-736 516.5,-700 587.5,-700 587.5,-736"/>
<text text-anchor="middle" x="552" y="-715.2" font-family="Courier,monospace" font-size="11.00">Db_Mysql</text>
</g>
<!-- \\Db_Mysql&#45;&gt;\\DbObject -->
<g id="edge12" class="edge"><title>\\Db_Mysql&#45;&gt;\\DbObject</title>
<path fill="none" stroke="black" d="M516.396,-721.783C474.587,-726.353 403.865,-734.084 355.609,-739.359"/>
<polygon fill="none" stroke="black" points="354.93,-735.912 345.369,-740.478 355.691,-742.87 354.93,-735.912"/>
</g>
<!-- \\SJson -->
<g id="node30" class="node"><title>\\SJson</title>
<polygon fill="none" stroke="black" points="579,-682 525,-682 525,-646 579,-646 579,-682"/>
<text text-anchor="middle" x="552" y="-661.2" font-family="Courier,monospace" font-size="11.00">SJson</text>
</g>
<!-- \\SError -->
<g id="node31" class="node"><title>\\SError</title>
<polygon fill="none" stroke="black" points="580.5,-628 523.5,-628 523.5,-592 580.5,-592 580.5,-628"/>
<text text-anchor="middle" x="552" y="-607.2" font-family="Courier,monospace" font-size="11.00">SError</text>
</g>
<!-- \\Json -->
<g id="node32" class="node"><title>\\Json</title>
<polygon fill="none" stroke="black" points="579,-574 525,-574 525,-538 579,-538 579,-574"/>
<text text-anchor="middle" x="552" y="-553.2" font-family="Courier,monospace" font-size="11.00">Json</text>
</g>
<!-- \\SRestClient -->
<g id="node33" class="node"><title>\\SRestClient</title>
<polygon fill="none" stroke="black" points="597.5,-520 506.5,-520 506.5,-484 597.5,-484 597.5,-520"/>
<text text-anchor="middle" x="552" y="-499.2" font-family="Courier,monospace" font-size="11.00">SRestClient</text>
</g>
<!-- \\SRestClient&#45;&gt;\\Rest_Http -->
<g id="edge13" class="edge"><title>\\SRestClient&#45;&gt;\\Rest_Http</title>
<path fill="none" stroke="black" d="M506.27,-502C462.548,-502 396.219,-502 351.554,-502"/>
<polygon fill="none" stroke="black" points="351.532,-498.5 341.532,-502 351.532,-505.5 351.532,-498.5"/>
</g>
<!-- \\SCache -->
<g id="node34" class="node"><title>\\SCache</title>
<polygon fill="none" stroke="black" points="580.5,-196 523.5,-196 523.5,-160 580.5,-160 580.5,-196"/>
<text text-anchor="middle" x="552" y="-175.2" font-family="Courier,monospace" font-size="11.00">SCache</text>
</g>
<!-- \\Cache_MemCache -->
<g id="node43" class="node"><title>\\Cache_MemCache</title>
<ellipse fill="none" stroke="black" cx="303" cy="-18" rx="100.983" ry="18"/>
<text text-anchor="middle" x="303" y="-14.3" font-family="Times,serif" font-size="14.00" fill="gray">\Cache_MemCache</text>
</g>
<!-- \\SCache&#45;&gt;\\Cache_MemCache -->
<g id="edge14" class="edge"><title>\\SCache&#45;&gt;\\Cache_MemCache</title>
<path fill="none" stroke="black" d="M523.191,-172.565C508.045,-168.544 489.662,-161.834 476,-151 429.926,-114.463 452.333,-73.4913 404,-40 400.283,-37.4246 396.318,-35.1437 392.19,-33.1244"/>
<polygon fill="none" stroke="black" points="393.493,-29.8749 382.926,-29.1085 390.709,-36.2974 393.493,-29.8749"/>
</g>
<!-- \\SRedis -->
<g id="node35" class="node"><title>\\SRedis</title>
<polygon fill="none" stroke="black" points="580.5,-412 523.5,-412 523.5,-376 580.5,-376 580.5,-412"/>
<text text-anchor="middle" x="552" y="-391.2" font-family="Courier,monospace" font-size="11.00">SRedis</text>
</g>
<!-- \\SHttp -->
<g id="node36" class="node"><title>\\SHttp</title>
<polygon fill="none" stroke="black" points="579,-358 525,-358 525,-322 579,-322 579,-358"/>
<text text-anchor="middle" x="552" y="-337.2" font-family="Courier,monospace" font-size="11.00">SHttp</text>
</g>
<!-- \\SLanguage -->
<g id="node37" class="node"><title>\\SLanguage</title>
<polygon fill="none" stroke="black" points="590.5,-304 513.5,-304 513.5,-268 590.5,-268 590.5,-304"/>
<text text-anchor="middle" x="552" y="-283.2" font-family="Courier,monospace" font-size="11.00">SLanguage</text>
</g>
<!-- \\SConfig -->
<g id="node38" class="node"><title>\\SConfig</title>
<polygon fill="none" stroke="black" points="584,-250 520,-250 520,-214 584,-214 584,-250"/>
<text text-anchor="middle" x="552" y="-229.2" font-family="Courier,monospace" font-size="11.00">SConfig</text>
</g>
<!-- \\SCaptcha -->
<g id="node39" class="node"><title>\\SCaptcha</title>
<polygon fill="none" stroke="black" points="587.5,-466 516.5,-466 516.5,-430 587.5,-430 587.5,-466"/>
<text text-anchor="middle" x="552" y="-445.2" font-family="Courier,monospace" font-size="11.00">SCaptcha</text>
</g>
<!-- \\SCaptcha&#45;&gt;\\SimpleCaptcha -->
<g id="edge15" class="edge"><title>\\SCaptcha&#45;&gt;\\SimpleCaptcha</title>
<path fill="none" stroke="black" d="M516.396,-448C477.309,-448 412.949,-448 365.303,-448"/>
<polygon fill="none" stroke="black" points="365.101,-444.5 355.101,-448 365.101,-451.5 365.101,-444.5"/>
</g>
<!-- \\SRoute -->
<g id="node40" class="node"><title>\\SRoute</title>
<polygon fill="none" stroke="black" points="580.5,-142 523.5,-142 523.5,-106 580.5,-106 580.5,-142"/>
<text text-anchor="middle" x="552" y="-121.2" font-family="Courier,monospace" font-size="11.00">SRoute</text>
</g>
<!-- \\SLunar -->
<g id="node41" class="node"><title>\\SLunar</title>
<polygon fill="none" stroke="black" points="580.5,-88 523.5,-88 523.5,-52 580.5,-52 580.5,-88"/>
<text text-anchor="middle" x="552" y="-67.2" font-family="Courier,monospace" font-size="11.00">SLunar</text>
</g>
</g>
</svg>
