<?xml version="1.0" encoding="UTF-8" standalone="no"?>
<!DOCTYPE svg PUBLIC "-//W3C//DTD SVG 1.1//EN"
 "http://www.w3.org/Graphics/SVG/1.1/DTD/svg11.dtd">
<!-- Generated by graphviz version 2.36.0 (20140111.2315)
 -->
<!-- Title: G Pages: 1 -->
<svg width="918pt" height="1158pt"
 viewBox="0.00 0.00 918.00 1158.00" xmlns="http://www.w3.org/2000/svg" xmlns:xlink="http://www.w3.org/1999/xlink">
<g id="graph0" class="graph" transform="scale(1 1) rotate(0) translate(4 1154)">
<title>G</title>
<polygon fill="white" stroke="none" points="-4,4 -4,-1154 914,-1154 914,4 -4,4"/>
<g id="clust1" class="cluster"><title>cluster_Global</title>
<path fill="none" stroke="gray" d="M198,-98C198,-98 890,-98 890,-98 896,-98 902,-104 902,-110 902,-110 902,-1130 902,-1130 902,-1136 896,-1142 890,-1142 890,-1142 198,-1142 198,-1142 192,-1142 186,-1136 186,-1130 186,-1130 186,-110 186,-110 186,-104 192,-98 198,-98"/>
<text text-anchor="middle" x="544" y="-1129.2" font-family="Times,serif" font-size="11.00" fill="gray">Global</text>
</g>
<g id="clust2" class="cluster"><title>cluster_\SlightPHP</title>
<path fill="none" stroke="gray" d="M206,-340C206,-340 650,-340 650,-340 656,-340 662,-346 662,-352 662,-352 662,-1102 662,-1102 662,-1108 656,-1114 650,-1114 650,-1114 206,-1114 206,-1114 200,-1114 194,-1108 194,-1102 194,-1102 194,-352 194,-352 194,-346 200,-340 206,-340"/>
<text text-anchor="middle" x="428" y="-1101.2" font-family="Times,serif" font-size="11.00" fill="gray">SlightPHP</text>
</g>
<!-- \\SlightPHP\\Cache_MemcacheObject -->
<g id="node1" class="node"><title>\\SlightPHP\\Cache_MemcacheObject</title>
<polygon fill="none" stroke="black" points="654,-1086 502,-1086 502,-1050 654,-1050 654,-1086"/>
<text text-anchor="middle" x="578" y="-1065.2" font-family="Courier,monospace" font-size="11.00">Cache_MemcacheObject</text>
</g>
<!-- \\SlightPHP\\Cache_MemcacheEngine -->
<g id="node2" class="node"><title>\\SlightPHP\\Cache_MemcacheEngine</title>
<polygon fill="none" stroke="black" points="354,-1032 202,-1032 202,-996 354,-996 354,-1032"/>
<text text-anchor="middle" x="278" y="-1011.2" font-family="Courier,monospace" font-size="11.00">Cache_MemcacheEngine</text>
</g>
<!-- \\Memcache -->
<g id="node38" class="node"><title>\\Memcache</title>
<ellipse fill="none" stroke="black" cx="65" cy="-1014" rx="64.9885" ry="18"/>
<text text-anchor="middle" x="65" y="-1010.3" font-family="Times,serif" font-size="14.00" fill="gray">\Memcache</text>
</g>
<!-- \\SlightPHP\\Cache_MemcacheEngine&#45;&gt;\\Memcache -->
<g id="edge1" class="edge"><title>\\SlightPHP\\Cache_MemcacheEngine&#45;&gt;\\Memcache</title>
<path fill="none" stroke="black" d="M201.718,-1014C181.763,-1014 160.232,-1014 140.328,-1014"/>
<polygon fill="none" stroke="black" points="140.085,-1010.5 130.085,-1014 140.085,-1017.5 140.085,-1010.5"/>
</g>
<!-- \\SlightPHP\\Cache_Memcache -->
<g id="node3" class="node"><title>\\SlightPHP\\Cache_Memcache</title>
<polygon fill="none" stroke="black" points="633.5,-1032 522.5,-1032 522.5,-996 633.5,-996 633.5,-1032"/>
<text text-anchor="middle" x="578" y="-1011.2" font-family="Courier,monospace" font-size="11.00">Cache_Memcache</text>
</g>
<!-- \\SlightPHP\\Cache_Memcache&#45;&gt;\\SlightPHP\\Cache_MemcacheEngine -->
<g id="edge2" class="edge"><title>\\SlightPHP\\Cache_Memcache&#45;&gt;\\SlightPHP\\Cache_MemcacheEngine</title>
<path fill="none" stroke="black" d="M522.342,-1014C478.077,-1014 414.942,-1014 364.073,-1014"/>
<polygon fill="none" stroke="black" points="364.072,-1010.5 354.072,-1014 364.072,-1017.5 364.072,-1010.5"/>
</g>
<!-- \\SlightPHP\\SphinxClient -->
<g id="node4" class="node"><title>\\SlightPHP\\SphinxClient</title>
<polygon fill="none" stroke="black" points="627,-654 529,-654 529,-618 627,-618 627,-654"/>
<text text-anchor="middle" x="578" y="-633.2" font-family="Courier,monospace" font-size="11.00">SphinxClient</text>
</g>
<!-- \\SlightPHP\\Db_PDO -->
<g id="node5" class="node"><title>\\SlightPHP\\Db_PDO</title>
<polygon fill="none" stroke="black" points="606.5,-546 549.5,-546 549.5,-510 606.5,-510 606.5,-546"/>
<text text-anchor="middle" x="578" y="-525.2" font-family="Courier,monospace" font-size="11.00">Db_PDO</text>
</g>
<!-- \\SlightPHP\\DbObject -->
<g id="node8" class="node"><title>\\SlightPHP\\DbObject</title>
<polygon fill="none" stroke="black" points="320,-681 236,-681 236,-645 320,-645 320,-681"/>
<text text-anchor="start" x="244" y="-666.2" font-family="Courier,monospace" font-size="11.00">«abstract»</text>
<text text-anchor="start" x="250.5" y="-654.2" font-family="Courier,monospace" font-size="11.00">DbObject</text>
</g>
<!-- \\SlightPHP\\Db_PDO&#45;&gt;\\SlightPHP\\DbObject -->
<g id="edge3" class="edge"><title>\\SlightPHP\\Db_PDO&#45;&gt;\\SlightPHP\\DbObject</title>
<path fill="none" stroke="black" d="M549.478,-529.182C518.366,-531.355 466.749,-537.517 426,-555 379.116,-575.115 333.027,-612.682 305.298,-637.771"/>
<polygon fill="none" stroke="black" points="302.636,-635.464 297.64,-644.807 307.372,-640.618 302.636,-635.464"/>
</g>
<!-- \\SlightPHP\\PHPMailer -->
<g id="node6" class="node"><title>\\SlightPHP\\PHPMailer</title>
<polygon fill="none" stroke="black" points="616.5,-870 539.5,-870 539.5,-834 616.5,-834 616.5,-870"/>
<text text-anchor="middle" x="578" y="-849.2" font-family="Courier,monospace" font-size="11.00">PHPMailer</text>
</g>
<!-- \\SlightPHP\\Thumbnail -->
<g id="node7" class="node"><title>\\SlightPHP\\Thumbnail</title>
<polygon fill="none" stroke="black" points="316.5,-924 239.5,-924 239.5,-888 316.5,-888 316.5,-924"/>
<text text-anchor="middle" x="278" y="-903.2" font-family="Courier,monospace" font-size="11.00">Thumbnail</text>
</g>
<!-- \\SlightPHP\\WMThumbnail -->
<g id="node9" class="node"><title>\\SlightPHP\\WMThumbnail</title>
<polygon fill="none" stroke="black" points="623.5,-924 532.5,-924 532.5,-888 623.5,-888 623.5,-924"/>
<text text-anchor="middle" x="578" y="-903.2" font-family="Courier,monospace" font-size="11.00">WMThumbnail</text>
</g>
<!-- \\SlightPHP\\WMThumbnail&#45;&gt;\\SlightPHP\\Thumbnail -->
<g id="edge7" class="edge"><title>\\SlightPHP\\WMThumbnail&#45;&gt;\\SlightPHP\\Thumbnail</title>
<path fill="none" stroke="black" d="M532.386,-906C477.206,-906 383.641,-906 326.96,-906"/>
<polygon fill="none" stroke="black" points="326.823,-902.5 316.823,-906 326.823,-909.5 326.823,-902.5"/>
</g>
<!-- \\SlightPHP\\Tpl -->
<g id="node10" class="node"><title>\\SlightPHP\\Tpl</title>
<polygon fill="none" stroke="black" points="605,-978 551,-978 551,-942 605,-942 605,-978"/>
<text text-anchor="middle" x="578" y="-957.2" font-family="Courier,monospace" font-size="11.00">Tpl</text>
</g>
<!-- \\SlightPHP\\Rest_Http -->
<g id="node11" class="node"><title>\\SlightPHP\\Rest_Http</title>
<polygon fill="none" stroke="black" points="616.5,-708 539.5,-708 539.5,-672 616.5,-672 616.5,-708"/>
<text text-anchor="middle" x="578" y="-687.2" font-family="Courier,monospace" font-size="11.00">Rest_Http</text>
</g>
<!-- \\SlightPHP\\Db -->
<g id="node12" class="node"><title>\\SlightPHP\\Db</title>
<polygon fill="none" stroke="black" points="605,-762 551,-762 551,-726 605,-726 605,-762"/>
<text text-anchor="middle" x="578" y="-741.2" font-family="Courier,monospace" font-size="11.00">Db</text>
</g>
<!-- \\SlightPHP\\SMTP -->
<g id="node13" class="node"><title>\\SlightPHP\\SMTP</title>
<polygon fill="none" stroke="black" points="605,-600 551,-600 551,-564 605,-564 605,-600"/>
<text text-anchor="middle" x="578" y="-579.2" font-family="Courier,monospace" font-size="11.00">SMTP</text>
</g>
<!-- \\SlightPHP\\Cache_APC -->
<g id="node14" class="node"><title>\\SlightPHP\\Cache_APC</title>
<polygon fill="none" stroke="black" points="616.5,-438 539.5,-438 539.5,-402 616.5,-402 616.5,-438"/>
<text text-anchor="middle" x="578" y="-417.2" font-family="Courier,monospace" font-size="11.00">Cache_APC</text>
</g>
<!-- \\SlightPHP\\CacheObject -->
<g id="node17" class="node"><title>\\SlightPHP\\CacheObject</title>
<polygon fill="none" stroke="black" points="323.5,-438 232.5,-438 232.5,-402 323.5,-402 323.5,-438"/>
<text text-anchor="start" x="244" y="-423.2" font-family="Courier,monospace" font-size="11.00">«abstract»</text>
<text text-anchor="start" x="240.5" y="-411.2" font-family="Courier,monospace" font-size="11.00">CacheObject</text>
</g>
<!-- \\SlightPHP\\Cache_APC&#45;&gt;\\SlightPHP\\CacheObject -->
<g id="edge10" class="edge"><title>\\SlightPHP\\Cache_APC&#45;&gt;\\SlightPHP\\CacheObject</title>
<path fill="none" stroke="black" d="M539.258,-420C487.399,-420 393.765,-420 334.079,-420"/>
<polygon fill="none" stroke="black" points="333.712,-416.5 323.712,-420 333.712,-423.5 333.712,-416.5"/>
</g>
<!-- \\SlightPHP\\DbData -->
<g id="node15" class="node"><title>\\SlightPHP\\DbData</title>
<polygon fill="none" stroke="black" points="606.5,-492 549.5,-492 549.5,-456 606.5,-456 606.5,-492"/>
<text text-anchor="middle" x="578" y="-471.2" font-family="Courier,monospace" font-size="11.00">DbData</text>
</g>
<!-- \\SlightPHP\\Db_Mysql -->
<g id="node16" class="node"><title>\\SlightPHP\\Db_Mysql</title>
<polygon fill="none" stroke="black" points="613.5,-816 542.5,-816 542.5,-780 613.5,-780 613.5,-816"/>
<text text-anchor="middle" x="578" y="-795.2" font-family="Courier,monospace" font-size="11.00">Db_Mysql</text>
</g>
<!-- \\SlightPHP\\Db_Mysql&#45;&gt;\\SlightPHP\\DbObject -->
<g id="edge11" class="edge"><title>\\SlightPHP\\Db_Mysql&#45;&gt;\\SlightPHP\\DbObject</title>
<path fill="none" stroke="black" d="M542.443,-796.283C510.982,-793.698 463.812,-787.223 426,-771 379.116,-750.885 333.027,-713.318 305.298,-688.229"/>
<polygon fill="none" stroke="black" points="307.372,-685.382 297.64,-681.193 302.636,-690.536 307.372,-685.382"/>
</g>
<!-- \\SlightPHP\\POP3 -->
<g id="node18" class="node"><title>\\SlightPHP\\POP3</title>
<polygon fill="none" stroke="black" points="605,-384 551,-384 551,-348 605,-348 605,-384"/>
<text text-anchor="middle" x="578" y="-363.2" font-family="Courier,monospace" font-size="11.00">POP3</text>
</g>
<!-- \\SSphinx -->
<g id="node19" class="node"><title>\\SSphinx</title>
<polygon fill="none" stroke="black" points="880,-682 816,-682 816,-646 880,-646 880,-682"/>
<text text-anchor="middle" x="848" y="-661.2" font-family="Courier,monospace" font-size="11.00">SSphinx</text>
</g>
<!-- \\SSphinx&#45;&gt;\\SlightPHP\\SphinxClient -->
<g id="edge4" class="edge"><title>\\SSphinx&#45;&gt;\\SlightPHP\\SphinxClient</title>
<path fill="none" stroke="black" d="M815.995,-660.761C772.412,-656.207 692.225,-647.829 637.296,-642.091"/>
<polygon fill="none" stroke="black" points="637.658,-638.609 627.348,-641.051 636.931,-645.572 637.658,-638.609"/>
</g>
<!-- \\SLog -->
<g id="node20" class="node"><title>\\SLog</title>
<polygon fill="none" stroke="black" points="875,-1060 821,-1060 821,-1024 875,-1024 875,-1060"/>
<text text-anchor="middle" x="848" y="-1039.2" font-family="Courier,monospace" font-size="11.00">SLog</text>
</g>
<!-- \\SlightPHP -->
<g id="node21" class="node"><title>\\SlightPHP</title>
<polygon fill="none" stroke="black" points="886.5,-1006 809.5,-1006 809.5,-970 886.5,-970 886.5,-1006"/>
<text text-anchor="middle" x="848" y="-985.2" font-family="Courier,monospace" font-size="11.00">SlightPHP</text>
</g>
<!-- \\STpl -->
<g id="node22" class="node"><title>\\STpl</title>
<polygon fill="none" stroke="black" points="875,-1114 821,-1114 821,-1078 875,-1078 875,-1114"/>
<text text-anchor="middle" x="848" y="-1093.2" font-family="Courier,monospace" font-size="11.00">STpl</text>
</g>
<!-- \\STpl&#45;&gt;\\SlightPHP\\Tpl -->
<g id="edge5" class="edge"><title>\\STpl&#45;&gt;\\SlightPHP\\Tpl</title>
<path fill="none" stroke="black" d="M820.844,-1082.17C814.415,-1078.28 807.736,-1073.79 802,-1069 764.76,-1037.93 772.242,-1010.83 730,-987 694.469,-966.957 647.394,-961.233 615.312,-959.868"/>
<polygon fill="none" stroke="black" points="615.146,-956.362 605.045,-959.558 614.935,-963.359 615.146,-956.362"/>
</g>
<!-- \\SRedis -->
<g id="node23" class="node"><title>\\SRedis</title>
<polygon fill="none" stroke="black" points="876.5,-898 819.5,-898 819.5,-862 876.5,-862 876.5,-898"/>
<text text-anchor="middle" x="848" y="-877.2" font-family="Courier,monospace" font-size="11.00">SRedis</text>
</g>
<!-- \\SCaptcha -->
<g id="node24" class="node"><title>\\SCaptcha</title>
<polygon fill="none" stroke="black" points="883.5,-412 812.5,-412 812.5,-376 883.5,-376 883.5,-412"/>
<text text-anchor="middle" x="848" y="-391.2" font-family="Courier,monospace" font-size="11.00">SCaptcha</text>
</g>
<!-- \\SlightPHP\\SimpleCaptcha -->
<g id="node39" class="node"><title>\\SlightPHP\\SimpleCaptcha</title>
<ellipse fill="none" stroke="black" cx="578" cy="-72" rx="135.676" ry="18"/>
<text text-anchor="middle" x="578" y="-68.3" font-family="Times,serif" font-size="14.00" fill="gray">\SlightPHP\SimpleCaptcha</text>
</g>
<!-- \\SCaptcha&#45;&gt;\\SlightPHP\\SimpleCaptcha -->
<g id="edge6" class="edge"><title>\\SCaptcha&#45;&gt;\\SlightPHP\\SimpleCaptcha</title>
<path fill="none" stroke="black" d="M813.529,-375.921C809.473,-373.16 805.524,-370.166 802,-367 708.323,-282.835 627.279,-154.455 594.505,-99.03"/>
<polygon fill="none" stroke="black" points="597.386,-97.0227 589.309,-90.1659 591.347,-100.563 597.386,-97.0227"/>
</g>
<!-- \\SUtil -->
<g id="node25" class="node"><title>\\SUtil</title>
<polygon fill="none" stroke="black" points="875,-790 821,-790 821,-754 875,-754 875,-790"/>
<text text-anchor="middle" x="848" y="-769.2" font-family="Courier,monospace" font-size="11.00">SUtil</text>
</g>
<!-- \\SCache -->
<g id="node26" class="node"><title>\\SCache</title>
<polygon fill="none" stroke="black" points="876.5,-142 819.5,-142 819.5,-106 876.5,-106 876.5,-142"/>
<text text-anchor="middle" x="848" y="-121.2" font-family="Courier,monospace" font-size="11.00">SCache</text>
</g>
<!-- \\SlightPHP\\Cache_MemCache -->
<g id="node40" class="node"><title>\\SlightPHP\\Cache_MemCache</title>
<ellipse fill="none" stroke="black" cx="578" cy="-18" rx="152.173" ry="18"/>
<text text-anchor="middle" x="578" y="-14.3" font-family="Times,serif" font-size="14.00" fill="gray">\SlightPHP\Cache_MemCache</text>
</g>
<!-- \\SCache&#45;&gt;\\SlightPHP\\Cache_MemCache -->
<g id="edge8" class="edge"><title>\\SCache&#45;&gt;\\SlightPHP\\Cache_MemCache</title>
<path fill="none" stroke="black" d="M826.142,-105.906C803.872,-87.5977 766.792,-59.927 730,-45 718.609,-40.3785 706.416,-36.5458 694.081,-33.3677"/>
<polygon fill="none" stroke="black" points="694.715,-29.9199 684.171,-30.9567 693.061,-36.7215 694.715,-29.9199"/>
</g>
<!-- \\SMail -->
<g id="node27" class="node"><title>\\SMail</title>
<polygon fill="none" stroke="black" points="875,-952 821,-952 821,-916 875,-916 875,-952"/>
<text text-anchor="middle" x="848" y="-931.2" font-family="Courier,monospace" font-size="11.00">SMail</text>
</g>
<!-- \\SMail&#45;&gt;\\SlightPHP\\PHPMailer -->
<g id="edge9" class="edge"><title>\\SMail&#45;&gt;\\SlightPHP\\PHPMailer</title>
<path fill="none" stroke="black" d="M820.856,-919.267C797.661,-906.798 762.509,-889.348 730,-879 696.291,-868.269 656.907,-861.405 626.815,-857.284"/>
<polygon fill="none" stroke="black" points="626.953,-853.772 616.582,-855.939 626.041,-860.712 626.953,-853.772"/>
</g>
<!-- \\SJson -->
<g id="node28" class="node"><title>\\SJson</title>
<polygon fill="none" stroke="black" points="875,-628 821,-628 821,-592 875,-592 875,-628"/>
<text text-anchor="middle" x="848" y="-607.2" font-family="Courier,monospace" font-size="11.00">SJson</text>
</g>
<!-- \\SLanguage -->
<g id="node29" class="node"><title>\\SLanguage</title>
<polygon fill="none" stroke="black" points="886.5,-574 809.5,-574 809.5,-538 886.5,-538 886.5,-574"/>
<text text-anchor="middle" x="848" y="-553.2" font-family="Courier,monospace" font-size="11.00">SLanguage</text>
</g>
<!-- \\SRoute -->
<g id="node30" class="node"><title>\\SRoute</title>
<polygon fill="none" stroke="black" points="876.5,-520 819.5,-520 819.5,-484 876.5,-484 876.5,-520"/>
<text text-anchor="middle" x="848" y="-499.2" font-family="Courier,monospace" font-size="11.00">SRoute</text>
</g>
<!-- \\SConfig -->
<g id="node31" class="node"><title>\\SConfig</title>
<polygon fill="none" stroke="black" points="880,-466 816,-466 816,-430 880,-430 880,-466"/>
<text text-anchor="middle" x="848" y="-445.2" font-family="Courier,monospace" font-size="11.00">SConfig</text>
</g>
<!-- \\SDb -->
<g id="node32" class="node"><title>\\SDb</title>
<polygon fill="none" stroke="black" points="875,-844 821,-844 821,-808 875,-808 875,-844"/>
<text text-anchor="middle" x="848" y="-823.2" font-family="Courier,monospace" font-size="11.00">SDb</text>
</g>
<!-- \\SDb&#45;&gt;\\SlightPHP\\Db -->
<g id="edge12" class="edge"><title>\\SDb&#45;&gt;\\SlightPHP\\Db</title>
<path fill="none" stroke="black" d="M820.856,-811.267C797.661,-798.798 762.509,-781.348 730,-771 691.864,-758.86 646.466,-751.669 615.474,-747.8"/>
<polygon fill="none" stroke="black" points="615.493,-744.277 605.149,-746.567 614.663,-751.228 615.493,-744.277"/>
</g>
<!-- \\SLunar -->
<g id="node33" class="node"><title>\\SLunar</title>
<polygon fill="none" stroke="black" points="876.5,-358 819.5,-358 819.5,-322 876.5,-322 876.5,-358"/>
<text text-anchor="middle" x="848" y="-337.2" font-family="Courier,monospace" font-size="11.00">SLunar</text>
</g>
<!-- \\SRestServer -->
<g id="node34" class="node"><title>\\SRestServer</title>
<polygon fill="none" stroke="black" points="893.5,-304 802.5,-304 802.5,-268 893.5,-268 893.5,-304"/>
<text text-anchor="start" x="814" y="-289.2" font-family="Courier,monospace" font-size="11.00">«abstract»</text>
<text text-anchor="start" x="810.5" y="-277.2" font-family="Courier,monospace" font-size="11.00">SRestServer</text>
</g>
<!-- \\SError -->
<g id="node35" class="node"><title>\\SError</title>
<polygon fill="none" stroke="black" points="876.5,-250 819.5,-250 819.5,-214 876.5,-214 876.5,-250"/>
<text text-anchor="middle" x="848" y="-229.2" font-family="Courier,monospace" font-size="11.00">SError</text>
</g>
<!-- \\SHttp -->
<g id="node36" class="node"><title>\\SHttp</title>
<polygon fill="none" stroke="black" points="875,-196 821,-196 821,-160 875,-160 875,-196"/>
<text text-anchor="middle" x="848" y="-175.2" font-family="Courier,monospace" font-size="11.00">SHttp</text>
</g>
<!-- \\SRestClient -->
<g id="node37" class="node"><title>\\SRestClient</title>
<polygon fill="none" stroke="black" points="893.5,-736 802.5,-736 802.5,-700 893.5,-700 893.5,-736"/>
<text text-anchor="middle" x="848" y="-715.2" font-family="Courier,monospace" font-size="11.00">SRestClient</text>
</g>
<!-- \\SRestClient&#45;&gt;\\SlightPHP\\Rest_Http -->
<g id="edge13" class="edge"><title>\\SRestClient&#45;&gt;\\SlightPHP\\Rest_Http</title>
<path fill="none" stroke="black" d="M802.444,-713.345C753.948,-708.278 676.686,-700.206 626.91,-695.006"/>
<polygon fill="none" stroke="black" points="627.036,-691.5 616.726,-693.942 626.308,-698.462 627.036,-691.5"/>
</g>
</g>
</svg>
