<?xml version="1.0" encoding="UTF-8" standalone="no"?>
<!DOCTYPE svg PUBLIC "-//W3C//DTD SVG 1.1//EN"
 "http://www.w3.org/Graphics/SVG/1.1/DTD/svg11.dtd">
<!-- Generated by graphviz version 2.36.0 (20140111.2315)
 -->
<!-- Title: G Pages: 1 -->
<svg width="588pt" height="1644pt"
 viewBox="0.00 0.00 588.00 1644.00" xmlns="http://www.w3.org/2000/svg" xmlns:xlink="http://www.w3.org/1999/xlink">
<g id="graph0" class="graph" transform="scale(1 1) rotate(0) translate(4 1640)">
<title>G</title>
<polygon fill="white" stroke="none" points="-4,4 -4,-1640 584,-1640 584,4 -4,4"/>
<g id="clust1" class="cluster"><title>cluster_Global</title>
<path fill="none" stroke="gray" d="M187,-98C187,-98 560,-98 560,-98 566,-98 572,-104 572,-110 572,-110 572,-1616 572,-1616 572,-1622 566,-1628 560,-1628 560,-1628 187,-1628 187,-1628 181,-1628 175,-1622 175,-1616 175,-1616 175,-110 175,-110 175,-104 181,-98 187,-98"/>
<text text-anchor="middle" x="373.5" y="-1615.2" font-family="Times,serif" font-size="11.00" fill="gray">Global</text>
</g>
<!-- \\SRestClient -->
<g id="node1" class="node"><title>\\SRestClient</title>
<polygon fill="none" stroke="black" points="533.5,-1600 442.5,-1600 442.5,-1564 533.5,-1564 533.5,-1600"/>
<text text-anchor="middle" x="488" y="-1579.2" font-family="Courier,monospace" font-size="11.00">SRestClient</text>
</g>
<!-- \\Rest_Http -->
<g id="node26" class="node"><title>\\Rest_Http</title>
<polygon fill="none" stroke="black" points="297.5,-1600 220.5,-1600 220.5,-1564 297.5,-1564 297.5,-1600"/>
<text text-anchor="middle" x="259" y="-1579.2" font-family="Courier,monospace" font-size="11.00">Rest_Http</text>
</g>
<!-- \\SRestClient&#45;&gt;\\Rest_Http -->
<g id="edge1" class="edge"><title>\\SRestClient&#45;&gt;\\Rest_Http</title>
<path fill="none" stroke="black" d="M442.423,-1582C403.665,-1582 347.65,-1582 307.934,-1582"/>
<polygon fill="none" stroke="black" points="307.702,-1578.5 297.702,-1582 307.702,-1585.5 307.702,-1578.5"/>
</g>
<!-- \\SJson -->
<g id="node2" class="node"><title>\\SJson</title>
<polygon fill="none" stroke="black" points="515,-1546 461,-1546 461,-1510 515,-1510 515,-1546"/>
<text text-anchor="middle" x="488" y="-1525.2" font-family="Courier,monospace" font-size="11.00">SJson</text>
</g>
<!-- \\Cache_MemcacheObject -->
<g id="node3" class="node"><title>\\Cache_MemcacheObject</title>
<polygon fill="none" stroke="black" points="564,-1492 412,-1492 412,-1456 564,-1456 564,-1492"/>
<text text-anchor="middle" x="488" y="-1471.2" font-family="Courier,monospace" font-size="11.00">Cache_MemcacheObject</text>
</g>
<!-- \\Cache_MemcacheEngine -->
<g id="node4" class="node"><title>\\Cache_MemcacheEngine</title>
<polygon fill="none" stroke="black" points="335,-1438 183,-1438 183,-1402 335,-1402 335,-1438"/>
<text text-anchor="middle" x="259" y="-1417.2" font-family="Courier,monospace" font-size="11.00">Cache_MemcacheEngine</text>
</g>
<!-- \\Memcache -->
<g id="node38" class="node"><title>\\Memcache</title>
<ellipse fill="none" stroke="black" cx="53" cy="-1420" rx="52.7911" ry="18"/>
<text text-anchor="middle" x="53" y="-1416.3" font-family="Times,serif" font-size="14.00" fill="gray">\Memcache</text>
</g>
<!-- \\Cache_MemcacheEngine&#45;&gt;\\Memcache -->
<g id="edge2" class="edge"><title>\\Cache_MemcacheEngine&#45;&gt;\\Memcache</title>
<path fill="none" stroke="black" d="M182.907,-1420C160.842,-1420 136.968,-1420 115.833,-1420"/>
<polygon fill="none" stroke="black" points="115.697,-1416.5 105.697,-1420 115.697,-1423.5 115.697,-1416.5"/>
</g>
<!-- \\Cache_Memcache -->
<g id="node5" class="node"><title>\\Cache_Memcache</title>
<polygon fill="none" stroke="black" points="543.5,-1438 432.5,-1438 432.5,-1402 543.5,-1402 543.5,-1438"/>
<text text-anchor="middle" x="488" y="-1417.2" font-family="Courier,monospace" font-size="11.00">Cache_Memcache</text>
</g>
<!-- \\Cache_Memcache&#45;&gt;\\Cache_MemcacheEngine -->
<g id="edge3" class="edge"><title>\\Cache_Memcache&#45;&gt;\\Cache_MemcacheEngine</title>
<path fill="none" stroke="black" d="M432.339,-1420C406.287,-1420 374.517,-1420 345.385,-1420"/>
<polygon fill="none" stroke="black" points="345.205,-1416.5 335.205,-1420 345.205,-1423.5 345.205,-1416.5"/>
</g>
<!-- \\SError -->
<g id="node6" class="node"><title>\\SError</title>
<polygon fill="none" stroke="black" points="516.5,-1384 459.5,-1384 459.5,-1348 516.5,-1348 516.5,-1384"/>
<text text-anchor="middle" x="488" y="-1363.2" font-family="Courier,monospace" font-size="11.00">SError</text>
</g>
<!-- \\SRedis -->
<g id="node7" class="node"><title>\\SRedis</title>
<polygon fill="none" stroke="black" points="516.5,-1330 459.5,-1330 459.5,-1294 516.5,-1294 516.5,-1330"/>
<text text-anchor="middle" x="488" y="-1309.2" font-family="Courier,monospace" font-size="11.00">SRedis</text>
</g>
<!-- \\SConfig -->
<g id="node8" class="node"><title>\\SConfig</title>
<polygon fill="none" stroke="black" points="520,-1276 456,-1276 456,-1240 520,-1240 520,-1276"/>
<text text-anchor="middle" x="488" y="-1255.2" font-family="Courier,monospace" font-size="11.00">SConfig</text>
</g>
<!-- \\SphinxClient -->
<g id="node9" class="node"><title>\\SphinxClient</title>
<polygon fill="none" stroke="black" points="308,-1222 210,-1222 210,-1186 308,-1186 308,-1222"/>
<text text-anchor="middle" x="259" y="-1201.2" font-family="Courier,monospace" font-size="11.00">SphinxClient</text>
</g>
<!-- \\SSphinx -->
<g id="node10" class="node"><title>\\SSphinx</title>
<polygon fill="none" stroke="black" points="520,-1222 456,-1222 456,-1186 520,-1186 520,-1222"/>
<text text-anchor="middle" x="488" y="-1201.2" font-family="Courier,monospace" font-size="11.00">SSphinx</text>
</g>
<!-- \\SSphinx&#45;&gt;\\SphinxClient -->
<g id="edge4" class="edge"><title>\\SSphinx&#45;&gt;\\SphinxClient</title>
<path fill="none" stroke="black" d="M455.913,-1204C420.615,-1204 362.245,-1204 318.381,-1204"/>
<polygon fill="none" stroke="black" points="318.13,-1200.5 308.13,-1204 318.13,-1207.5 318.13,-1200.5"/>
</g>
<!-- \\Db_PDO -->
<g id="node11" class="node"><title>\\Db_PDO</title>
<polygon fill="none" stroke="black" points="516.5,-790 459.5,-790 459.5,-754 516.5,-754 516.5,-790"/>
<text text-anchor="middle" x="488" y="-769.2" font-family="Courier,monospace" font-size="11.00">Db_PDO</text>
</g>
<!-- \\DbObject -->
<g id="node16" class="node"><title>\\DbObject</title>
<polygon fill="none" stroke="black" points="301,-844 217,-844 217,-808 301,-808 301,-844"/>
<text text-anchor="start" x="225" y="-829.2" font-family="Courier,monospace" font-size="11.00">«abstract»</text>
<text text-anchor="start" x="231.5" y="-817.2" font-family="Courier,monospace" font-size="11.00">DbObject</text>
</g>
<!-- \\Db_PDO&#45;&gt;\\DbObject -->
<g id="edge5" class="edge"><title>\\Db_PDO&#45;&gt;\\DbObject</title>
<path fill="none" stroke="black" d="M459.165,-778.621C422.326,-787.385 356.701,-802.996 310.887,-813.895"/>
<polygon fill="none" stroke="black" points="310.059,-810.494 301.141,-816.213 311.679,-817.304 310.059,-810.494"/>
</g>
<!-- \\SUtil -->
<g id="node12" class="node"><title>\\SUtil</title>
<polygon fill="none" stroke="black" points="515,-1114 461,-1114 461,-1078 515,-1078 515,-1114"/>
<text text-anchor="middle" x="488" y="-1093.2" font-family="Courier,monospace" font-size="11.00">SUtil</text>
</g>
<!-- \\SlightPHP -->
<g id="node13" class="node"><title>\\SlightPHP</title>
<polygon fill="none" stroke="black" points="526.5,-1060 449.5,-1060 449.5,-1024 526.5,-1024 526.5,-1060"/>
<text text-anchor="middle" x="488" y="-1039.2" font-family="Courier,monospace" font-size="11.00">SlightPHP</text>
</g>
<!-- \\PHPMailer -->
<g id="node14" class="node"><title>\\PHPMailer</title>
<polygon fill="none" stroke="black" points="297.5,-466 220.5,-466 220.5,-430 297.5,-430 297.5,-466"/>
<text text-anchor="middle" x="259" y="-445.2" font-family="Courier,monospace" font-size="11.00">PHPMailer</text>
</g>
<!-- \\Thumbnail -->
<g id="node15" class="node"><title>\\Thumbnail</title>
<polygon fill="none" stroke="black" points="297.5,-1168 220.5,-1168 220.5,-1132 297.5,-1132 297.5,-1168"/>
<text text-anchor="middle" x="259" y="-1147.2" font-family="Courier,monospace" font-size="11.00">Thumbnail</text>
</g>
<!-- \\WMThumbnail -->
<g id="node17" class="node"><title>\\WMThumbnail</title>
<polygon fill="none" stroke="black" points="533.5,-1168 442.5,-1168 442.5,-1132 533.5,-1132 533.5,-1168"/>
<text text-anchor="middle" x="488" y="-1147.2" font-family="Courier,monospace" font-size="11.00">WMThumbnail</text>
</g>
<!-- \\WMThumbnail&#45;&gt;\\Thumbnail -->
<g id="edge6" class="edge"><title>\\WMThumbnail&#45;&gt;\\Thumbnail</title>
<path fill="none" stroke="black" d="M442.423,-1150C403.665,-1150 347.65,-1150 307.934,-1150"/>
<polygon fill="none" stroke="black" points="307.702,-1146.5 297.702,-1150 307.702,-1153.5 307.702,-1146.5"/>
</g>
<!-- \\SCache -->
<g id="node18" class="node"><title>\\SCache</title>
<polygon fill="none" stroke="black" points="516.5,-304 459.5,-304 459.5,-268 516.5,-268 516.5,-304"/>
<text text-anchor="middle" x="488" y="-283.2" font-family="Courier,monospace" font-size="11.00">SCache</text>
</g>
<!-- \\Cache_MemCache -->
<g id="node39" class="node"><title>\\Cache_MemCache</title>
<ellipse fill="none" stroke="black" cx="259" cy="-72" rx="81.4863" ry="18"/>
<text text-anchor="middle" x="259" y="-68.3" font-family="Times,serif" font-size="14.00" fill="gray">\Cache_MemCache</text>
</g>
<!-- \\SCache&#45;&gt;\\Cache_MemCache -->
<g id="edge7" class="edge"><title>\\SCache&#45;&gt;\\Cache_MemCache</title>
<path fill="none" stroke="black" d="M459.199,-281.58C443.681,-277.856 424.931,-271.106 412,-259 353.59,-204.318 400.476,-146.387 340,-94 337.441,-91.7836 334.678,-89.7888 331.77,-87.9935"/>
<polygon fill="none" stroke="black" points="333.145,-84.7615 322.668,-83.1841 329.875,-90.9506 333.145,-84.7615"/>
</g>
<!-- \\STpl -->
<g id="node19" class="node"><title>\\STpl</title>
<polygon fill="none" stroke="black" points="515,-1006 461,-1006 461,-970 515,-970 515,-1006"/>
<text text-anchor="middle" x="488" y="-985.2" font-family="Courier,monospace" font-size="11.00">STpl</text>
</g>
<!-- \\Tpl -->
<g id="node20" class="node"><title>\\Tpl</title>
<polygon fill="none" stroke="black" points="286,-1006 232,-1006 232,-970 286,-970 286,-1006"/>
<text text-anchor="middle" x="259" y="-985.2" font-family="Courier,monospace" font-size="11.00">Tpl</text>
</g>
<!-- \\STpl&#45;&gt;\\Tpl -->
<g id="edge8" class="edge"><title>\\STpl&#45;&gt;\\Tpl</title>
<path fill="none" stroke="black" d="M460.96,-988C420.445,-988 342.204,-988 296.212,-988"/>
<polygon fill="none" stroke="black" points="296.085,-984.5 286.085,-988 296.085,-991.5 296.085,-984.5"/>
</g>
<!-- \\SLanguage -->
<g id="node21" class="node"><title>\\SLanguage</title>
<polygon fill="none" stroke="black" points="526.5,-844 449.5,-844 449.5,-808 526.5,-808 526.5,-844"/>
<text text-anchor="middle" x="488" y="-823.2" font-family="Courier,monospace" font-size="11.00">SLanguage</text>
</g>
<!-- \\SDb -->
<g id="node22" class="node"><title>\\SDb</title>
<polygon fill="none" stroke="black" points="515,-952 461,-952 461,-916 515,-916 515,-952"/>
<text text-anchor="middle" x="488" y="-931.2" font-family="Courier,monospace" font-size="11.00">SDb</text>
</g>
<!-- \\Db -->
<g id="node25" class="node"><title>\\Db</title>
<polygon fill="none" stroke="black" points="286,-952 232,-952 232,-916 286,-916 286,-952"/>
<text text-anchor="middle" x="259" y="-931.2" font-family="Courier,monospace" font-size="11.00">Db</text>
</g>
<!-- \\SDb&#45;&gt;\\Db -->
<g id="edge9" class="edge"><title>\\SDb&#45;&gt;\\Db</title>
<path fill="none" stroke="black" d="M460.96,-934C420.445,-934 342.204,-934 296.212,-934"/>
<polygon fill="none" stroke="black" points="296.085,-930.5 286.085,-934 296.085,-937.5 296.085,-930.5"/>
</g>
<!-- \\SLunar -->
<g id="node23" class="node"><title>\\SLunar</title>
<polygon fill="none" stroke="black" points="516.5,-736 459.5,-736 459.5,-700 516.5,-700 516.5,-736"/>
<text text-anchor="middle" x="488" y="-715.2" font-family="Courier,monospace" font-size="11.00">SLunar</text>
</g>
<!-- \\SRoute -->
<g id="node24" class="node"><title>\\SRoute</title>
<polygon fill="none" stroke="black" points="516.5,-682 459.5,-682 459.5,-646 516.5,-646 516.5,-682"/>
<text text-anchor="middle" x="488" y="-661.2" font-family="Courier,monospace" font-size="11.00">SRoute</text>
</g>
<!-- \\SMTP -->
<g id="node27" class="node"><title>\\SMTP</title>
<polygon fill="none" stroke="black" points="515,-628 461,-628 461,-592 515,-592 515,-628"/>
<text text-anchor="middle" x="488" y="-607.2" font-family="Courier,monospace" font-size="11.00">SMTP</text>
</g>
<!-- \\Cache_APC -->
<g id="node28" class="node"><title>\\Cache_APC</title>
<polygon fill="none" stroke="black" points="526.5,-574 449.5,-574 449.5,-538 526.5,-538 526.5,-574"/>
<text text-anchor="middle" x="488" y="-553.2" font-family="Courier,monospace" font-size="11.00">Cache_APC</text>
</g>
<!-- \\CacheObject -->
<g id="node34" class="node"><title>\\CacheObject</title>
<polygon fill="none" stroke="black" points="304.5,-574 213.5,-574 213.5,-538 304.5,-538 304.5,-574"/>
<text text-anchor="start" x="225" y="-559.2" font-family="Courier,monospace" font-size="11.00">«abstract»</text>
<text text-anchor="start" x="221.5" y="-547.2" font-family="Courier,monospace" font-size="11.00">CacheObject</text>
</g>
<!-- \\Cache_APC&#45;&gt;\\CacheObject -->
<g id="edge10" class="edge"><title>\\Cache_APC&#45;&gt;\\CacheObject</title>
<path fill="none" stroke="black" d="M449.261,-556C412.651,-556 356.687,-556 315.101,-556"/>
<polygon fill="none" stroke="black" points="314.858,-552.5 304.858,-556 314.858,-559.5 314.858,-552.5"/>
</g>
<!-- \\SRestServer -->
<g id="node29" class="node"><title>\\SRestServer</title>
<polygon fill="none" stroke="black" points="533.5,-520 442.5,-520 442.5,-484 533.5,-484 533.5,-520"/>
<text text-anchor="start" x="454" y="-505.2" font-family="Courier,monospace" font-size="11.00">«abstract»</text>
<text text-anchor="start" x="450.5" y="-493.2" font-family="Courier,monospace" font-size="11.00">SRestServer</text>
</g>
<!-- \\SMail -->
<g id="node30" class="node"><title>\\SMail</title>
<polygon fill="none" stroke="black" points="515,-466 461,-466 461,-430 515,-430 515,-466"/>
<text text-anchor="middle" x="488" y="-445.2" font-family="Courier,monospace" font-size="11.00">SMail</text>
</g>
<!-- \\SMail&#45;&gt;\\PHPMailer -->
<g id="edge11" class="edge"><title>\\SMail&#45;&gt;\\PHPMailer</title>
<path fill="none" stroke="black" d="M460.96,-448C423.716,-448 354.592,-448 307.946,-448"/>
<polygon fill="none" stroke="black" points="307.771,-444.5 297.771,-448 307.771,-451.5 307.771,-444.5"/>
</g>
<!-- \\DbData -->
<g id="node31" class="node"><title>\\DbData</title>
<polygon fill="none" stroke="black" points="516.5,-412 459.5,-412 459.5,-376 516.5,-376 516.5,-412"/>
<text text-anchor="middle" x="488" y="-391.2" font-family="Courier,monospace" font-size="11.00">DbData</text>
</g>
<!-- \\SHttp -->
<g id="node32" class="node"><title>\\SHttp</title>
<polygon fill="none" stroke="black" points="515,-358 461,-358 461,-322 515,-322 515,-358"/>
<text text-anchor="middle" x="488" y="-337.2" font-family="Courier,monospace" font-size="11.00">SHttp</text>
</g>
<!-- \\Db_Mysql -->
<g id="node33" class="node"><title>\\Db_Mysql</title>
<polygon fill="none" stroke="black" points="523.5,-898 452.5,-898 452.5,-862 523.5,-862 523.5,-898"/>
<text text-anchor="middle" x="488" y="-877.2" font-family="Courier,monospace" font-size="11.00">Db_Mysql</text>
</g>
<!-- \\Db_Mysql&#45;&gt;\\DbObject -->
<g id="edge12" class="edge"><title>\\Db_Mysql&#45;&gt;\\DbObject</title>
<path fill="none" stroke="black" d="M452.029,-871.681C414.379,-862.725 354.119,-848.389 311.147,-838.167"/>
<polygon fill="none" stroke="black" points="311.705,-834.702 301.167,-835.793 310.085,-841.512 311.705,-834.702"/>
</g>
<!-- \\SCaptcha -->
<g id="node35" class="node"><title>\\SCaptcha</title>
<polygon fill="none" stroke="black" points="523.5,-250 452.5,-250 452.5,-214 523.5,-214 523.5,-250"/>
<text text-anchor="middle" x="488" y="-229.2" font-family="Courier,monospace" font-size="11.00">SCaptcha</text>
</g>
<!-- \\SimpleCaptcha -->
<g id="node40" class="node"><title>\\SimpleCaptcha</title>
<ellipse fill="none" stroke="black" cx="259" cy="-18" rx="67.6881" ry="18"/>
<text text-anchor="middle" x="259" y="-14.3" font-family="Times,serif" font-size="14.00" fill="gray">\SimpleCaptcha</text>
</g>
<!-- \\SCaptcha&#45;&gt;\\SimpleCaptcha -->
<g id="edge13" class="edge"><title>\\SCaptcha&#45;&gt;\\SimpleCaptcha</title>
<path fill="none" stroke="black" d="M452.162,-225.652C438.31,-221.662 423.07,-215.246 412,-205 354.771,-152.032 397.758,-97.3914 340,-45 334.821,-40.3019 328.794,-36.4172 322.415,-33.2059"/>
<polygon fill="none" stroke="black" points="323.435,-29.8292 312.875,-28.9664 320.592,-36.226 323.435,-29.8292"/>
</g>
<!-- \\SLog -->
<g id="node36" class="node"><title>\\SLog</title>
<polygon fill="none" stroke="black" points="515,-196 461,-196 461,-160 515,-160 515,-196"/>
<text text-anchor="middle" x="488" y="-175.2" font-family="Courier,monospace" font-size="11.00">SLog</text>
</g>
<!-- \\POP3 -->
<g id="node37" class="node"><title>\\POP3</title>
<polygon fill="none" stroke="black" points="515,-142 461,-142 461,-106 515,-106 515,-142"/>
<text text-anchor="middle" x="488" y="-121.2" font-family="Courier,monospace" font-size="11.00">POP3</text>
</g>
</g>
</svg>
