<?xml version="1.0" encoding="UTF-8" standalone="no"?>
<!DOCTYPE svg PUBLIC "-//W3C//DTD SVG 1.1//EN"
 "http://www.w3.org/Graphics/SVG/1.1/DTD/svg11.dtd">
<!-- Generated by graphviz version 2.36.0 (20140111.2315)
 -->
<!-- Title: G Pages: 1 -->
<svg width="830pt" height="1158pt"
 viewBox="0.00 0.00 830.00 1158.00" xmlns="http://www.w3.org/2000/svg" xmlns:xlink="http://www.w3.org/1999/xlink">
<g id="graph0" class="graph" transform="scale(1 1) rotate(0) translate(4 1154)">
<title>G</title>
<polygon fill="white" stroke="none" points="-4,4 -4,-1154 826,-1154 826,4 -4,4"/>
<g id="clust1" class="cluster"><title>cluster_Global</title>
<path fill="none" stroke="gray" d="M174,-44C174,-44 802,-44 802,-44 808,-44 814,-50 814,-56 814,-56 814,-1130 814,-1130 814,-1136 808,-1142 802,-1142 802,-1142 174,-1142 174,-1142 168,-1142 162,-1136 162,-1130 162,-1130 162,-56 162,-56 162,-50 168,-44 174,-44"/>
<text text-anchor="middle" x="488" y="-1129.2" font-family="Times,serif" font-size="11.00" fill="gray">Global</text>
</g>
<g id="clust2" class="cluster"><title>cluster_\SlightPHP</title>
<path fill="none" stroke="gray" d="M182,-52C182,-52 594,-52 594,-52 600,-52 606,-58 606,-64 606,-64 606,-976 606,-976 606,-982 600,-988 594,-988 594,-988 182,-988 182,-988 176,-988 170,-982 170,-976 170,-976 170,-64 170,-64 170,-58 176,-52 182,-52"/>
<text text-anchor="middle" x="388" y="-975.2" font-family="Times,serif" font-size="11.00" fill="gray">SlightPHP</text>
</g>
<!-- \\SlightPHP\\Rest_Http -->
<g id="node1" class="node"><title>\\SlightPHP\\Rest_Http</title>
<polygon fill="none" stroke="black" points="560.5,-96 483.5,-96 483.5,-60 560.5,-60 560.5,-96"/>
<text text-anchor="middle" x="522" y="-75.2" font-family="Courier,monospace" font-size="11.00">Rest_Http</text>
</g>
<!-- \\SlightPHP\\SphinxClient -->
<g id="node2" class="node"><title>\\SlightPHP\\SphinxClient</title>
<polygon fill="none" stroke="black" points="571,-798 473,-798 473,-762 571,-762 571,-798"/>
<text text-anchor="middle" x="522" y="-777.2" font-family="Courier,monospace" font-size="11.00">SphinxClient</text>
</g>
<!-- \\SlightPHP\\SMTP -->
<g id="node3" class="node"><title>\\SlightPHP\\SMTP</title>
<polygon fill="none" stroke="black" points="549,-852 495,-852 495,-816 549,-816 549,-852"/>
<text text-anchor="middle" x="522" y="-831.2" font-family="Courier,monospace" font-size="11.00">SMTP</text>
</g>
<!-- \\SlightPHP\\PHPMailer -->
<g id="node4" class="node"><title>\\SlightPHP\\PHPMailer</title>
<polygon fill="none" stroke="black" points="560.5,-420 483.5,-420 483.5,-384 560.5,-384 560.5,-420"/>
<text text-anchor="middle" x="522" y="-399.2" font-family="Courier,monospace" font-size="11.00">PHPMailer</text>
</g>
<!-- \\SlightPHP\\POP3 -->
<g id="node5" class="node"><title>\\SlightPHP\\POP3</title>
<polygon fill="none" stroke="black" points="549,-744 495,-744 495,-708 549,-708 549,-744"/>
<text text-anchor="middle" x="522" y="-723.2" font-family="Courier,monospace" font-size="11.00">POP3</text>
</g>
<!-- \\SlightPHP\\SimpleCaptcha -->
<g id="node6" class="node"><title>\\SlightPHP\\SimpleCaptcha</title>
<polygon fill="none" stroke="black" points="574,-690 470,-690 470,-654 574,-654 574,-690"/>
<text text-anchor="middle" x="522" y="-669.2" font-family="Courier,monospace" font-size="11.00">SimpleCaptcha</text>
</g>
<!-- \\SlightPHP\\DbMysqli -->
<g id="node7" class="node"><title>\\SlightPHP\\DbMysqli</title>
<polygon fill="none" stroke="black" points="557.5,-636 486.5,-636 486.5,-600 557.5,-600 557.5,-636"/>
<text text-anchor="middle" x="522" y="-615.2" font-family="Courier,monospace" font-size="11.00">DbMysqli</text>
</g>
<!-- \\SlightPHP\\DbEngine -->
<g id="node21" class="node"><title>\\SlightPHP\\DbEngine</title>
<polygon fill="none" stroke="black" points="289.5,-528 218.5,-528 218.5,-492 289.5,-492 289.5,-528"/>
<text text-anchor="middle" x="254" y="-507.2" font-family="Courier,monospace" font-size="11.00">DbEngine</text>
</g>
<!-- \\SlightPHP\\DbMysqli&#45;&gt;\\SlightPHP\\DbEngine -->
<g id="edge6" class="edge"><title>\\SlightPHP\\DbMysqli&#45;&gt;\\SlightPHP\\DbEngine</title>
<path fill="none" stroke="black" stroke-dasharray="1,5" d="M486.399,-612.794C462.242,-608.527 429.524,-601.466 402,-591 362.137,-575.842 319.807,-551.541 290.859,-533.505"/>
<polygon fill="none" stroke="black" points="292.649,-530.496 282.323,-528.126 288.918,-536.418 292.649,-530.496"/>
</g>
<!-- \\SlightPHP\\DbData -->
<g id="node8" class="node"><title>\\SlightPHP\\DbData</title>
<polygon fill="none" stroke="black" points="550.5,-582 493.5,-582 493.5,-546 550.5,-546 550.5,-582"/>
<text text-anchor="middle" x="522" y="-561.2" font-family="Courier,monospace" font-size="11.00">DbData</text>
</g>
<!-- \\SlightPHP\\DbMysql -->
<g id="node9" class="node"><title>\\SlightPHP\\DbMysql</title>
<polygon fill="none" stroke="black" points="554,-528 490,-528 490,-492 554,-492 554,-528"/>
<text text-anchor="middle" x="522" y="-507.2" font-family="Courier,monospace" font-size="11.00">DbMysql</text>
</g>
<!-- \\SlightPHP\\DbMysql&#45;&gt;\\SlightPHP\\DbEngine -->
<g id="edge7" class="edge"><title>\\SlightPHP\\DbMysql&#45;&gt;\\SlightPHP\\DbEngine</title>
<path fill="none" stroke="black" stroke-dasharray="1,5" d="M489.966,-510C443.07,-510 353.906,-510 299.919,-510"/>
<polygon fill="none" stroke="black" points="299.614,-506.5 289.614,-510 299.614,-513.5 299.614,-506.5"/>
</g>
<!-- \\SlightPHP\\DbPDO -->
<g id="node10" class="node"><title>\\SlightPHP\\DbPDO</title>
<polygon fill="none" stroke="black" points="549,-474 495,-474 495,-438 549,-438 549,-474"/>
<text text-anchor="middle" x="522" y="-453.2" font-family="Courier,monospace" font-size="11.00">DbPDO</text>
</g>
<!-- \\SlightPHP\\DbPDO&#45;&gt;\\SlightPHP\\DbEngine -->
<g id="edge8" class="edge"><title>\\SlightPHP\\DbPDO&#45;&gt;\\SlightPHP\\DbEngine</title>
<path fill="none" stroke="black" stroke-dasharray="1,5" d="M494.522,-461.375C448.997,-470.617 355.418,-489.614 299.658,-500.934"/>
<polygon fill="none" stroke="black" points="298.81,-497.535 289.707,-502.954 300.203,-504.395 298.81,-497.535"/>
</g>
<!-- \\SlightPHP\\Db -->
<g id="node11" class="node"><title>\\SlightPHP\\Db</title>
<polygon fill="none" stroke="black" points="549,-366 495,-366 495,-330 549,-330 549,-366"/>
<text text-anchor="middle" x="522" y="-345.2" font-family="Courier,monospace" font-size="11.00">Db</text>
</g>
<!-- \\SlightPHP\\Tpl -->
<g id="node12" class="node"><title>\\SlightPHP\\Tpl</title>
<polygon fill="none" stroke="black" points="549,-960 495,-960 495,-924 549,-924 549,-960"/>
<text text-anchor="middle" x="522" y="-939.2" font-family="Courier,monospace" font-size="11.00">Tpl</text>
</g>
<!-- \\SlightPHP\\Cache_APC -->
<g id="node13" class="node"><title>\\SlightPHP\\Cache_APC</title>
<polygon fill="none" stroke="black" points="560.5,-312 483.5,-312 483.5,-276 560.5,-276 560.5,-312"/>
<text text-anchor="middle" x="522" y="-291.2" font-family="Courier,monospace" font-size="11.00">Cache_APC</text>
</g>
<!-- \\SlightPHP\\CacheObject -->
<g id="node14" class="node"><title>\\SlightPHP\\CacheObject</title>
<polygon fill="none" stroke="black" points="299.5,-285 208.5,-285 208.5,-249 299.5,-249 299.5,-285"/>
<text text-anchor="start" x="220" y="-270.2" font-family="Courier,monospace" font-size="11.00">«abstract»</text>
<text text-anchor="start" x="216.5" y="-258.2" font-family="Courier,monospace" font-size="11.00">CacheObject</text>
</g>
<!-- \\SlightPHP\\Cache_APC&#45;&gt;\\SlightPHP\\CacheObject -->
<g id="edge10" class="edge"><title>\\SlightPHP\\Cache_APC&#45;&gt;\\SlightPHP\\CacheObject</title>
<path fill="none" stroke="black" d="M483.453,-290.189C438.208,-285.596 361.813,-277.842 309.939,-272.577"/>
<polygon fill="none" stroke="black" points="310.211,-269.086 299.908,-271.558 309.504,-276.05 310.211,-269.086"/>
</g>
<!-- \\SlightPHP\\Cache_File -->
<g id="node15" class="node"><title>\\SlightPHP\\Cache_File</title>
<polygon fill="none" stroke="black" points="564,-258 480,-258 480,-222 564,-222 564,-258"/>
<text text-anchor="middle" x="522" y="-237.2" font-family="Courier,monospace" font-size="11.00">Cache_File</text>
</g>
<!-- \\SlightPHP\\Cache_File&#45;&gt;\\SlightPHP\\CacheObject -->
<g id="edge11" class="edge"><title>\\SlightPHP\\Cache_File&#45;&gt;\\SlightPHP\\CacheObject</title>
<path fill="none" stroke="black" d="M479.729,-244.189C434.131,-248.818 360.486,-256.293 310.012,-261.416"/>
<polygon fill="none" stroke="black" points="309.522,-257.948 299.927,-262.44 310.229,-264.912 309.522,-257.948"/>
</g>
<!-- \\SlightPHP\\Cache_MemcacheObject -->
<g id="node16" class="node"><title>\\SlightPHP\\Cache_MemcacheObject</title>
<polygon fill="none" stroke="black" points="598,-204 446,-204 446,-168 598,-168 598,-204"/>
<text text-anchor="middle" x="522" y="-183.2" font-family="Courier,monospace" font-size="11.00">Cache_MemcacheObject</text>
</g>
<!-- \\SlightPHP\\Cache_MemcacheEngine -->
<g id="node17" class="node"><title>\\SlightPHP\\Cache_MemcacheEngine</title>
<polygon fill="none" stroke="black" points="330,-150 178,-150 178,-114 330,-114 330,-150"/>
<text text-anchor="middle" x="254" y="-129.2" font-family="Courier,monospace" font-size="11.00">Cache_MemcacheEngine</text>
</g>
<!-- \\Memcache -->
<g id="node43" class="node"><title>\\Memcache</title>
<ellipse fill="none" stroke="black" cx="53" cy="-132" rx="52.7911" ry="18"/>
<text text-anchor="middle" x="53" y="-128.3" font-family="Times,serif" font-size="14.00" fill="gray">\Memcache</text>
</g>
<!-- \\SlightPHP\\Cache_MemcacheEngine&#45;&gt;\\Memcache -->
<g id="edge12" class="edge"><title>\\SlightPHP\\Cache_MemcacheEngine&#45;&gt;\\Memcache</title>
<path fill="none" stroke="black" d="M177.767,-132C157.334,-132 135.448,-132 115.848,-132"/>
<polygon fill="none" stroke="black" points="115.826,-128.5 105.826,-132 115.826,-135.5 115.826,-128.5"/>
</g>
<!-- \\SlightPHP\\Cache_Memcache -->
<g id="node18" class="node"><title>\\SlightPHP\\Cache_Memcache</title>
<polygon fill="none" stroke="black" points="577.5,-150 466.5,-150 466.5,-114 577.5,-114 577.5,-150"/>
<text text-anchor="middle" x="522" y="-129.2" font-family="Courier,monospace" font-size="11.00">Cache_Memcache</text>
</g>
<!-- \\SlightPHP\\Cache_Memcache&#45;&gt;\\SlightPHP\\Cache_MemcacheEngine -->
<g id="edge13" class="edge"><title>\\SlightPHP\\Cache_Memcache&#45;&gt;\\SlightPHP\\Cache_MemcacheEngine</title>
<path fill="none" stroke="black" d="M466.207,-132C429.888,-132 381.5,-132 340.204,-132"/>
<polygon fill="none" stroke="black" points="340.144,-128.5 330.144,-132 340.144,-135.5 340.144,-128.5"/>
</g>
<!-- \\SlightPHP\\Thumbnail -->
<g id="node19" class="node"><title>\\SlightPHP\\Thumbnail</title>
<polygon fill="none" stroke="black" points="292.5,-906 215.5,-906 215.5,-870 292.5,-870 292.5,-906"/>
<text text-anchor="middle" x="254" y="-885.2" font-family="Courier,monospace" font-size="11.00">Thumbnail</text>
</g>
<!-- \\SlightPHP\\WMThumbnail -->
<g id="node20" class="node"><title>\\SlightPHP\\WMThumbnail</title>
<polygon fill="none" stroke="black" points="567.5,-906 476.5,-906 476.5,-870 567.5,-870 567.5,-906"/>
<text text-anchor="middle" x="522" y="-885.2" font-family="Courier,monospace" font-size="11.00">WMThumbnail</text>
</g>
<!-- \\SlightPHP\\WMThumbnail&#45;&gt;\\SlightPHP\\Thumbnail -->
<g id="edge15" class="edge"><title>\\SlightPHP\\WMThumbnail&#45;&gt;\\SlightPHP\\Thumbnail</title>
<path fill="none" stroke="black" d="M476.478,-888C428.427,-888 352.178,-888 302.866,-888"/>
<polygon fill="none" stroke="black" points="302.772,-884.5 292.772,-888 302.772,-891.5 302.772,-884.5"/>
</g>
<!-- \\SlightPHP -->
<g id="node22" class="node"><title>\\SlightPHP</title>
<polygon fill="none" stroke="black" points="798.5,-1114 721.5,-1114 721.5,-1078 798.5,-1078 798.5,-1114"/>
<text text-anchor="middle" x="760" y="-1093.2" font-family="Courier,monospace" font-size="11.00">SlightPHP</text>
</g>
<!-- \\SRestClient -->
<g id="node23" class="node"><title>\\SRestClient</title>
<polygon fill="none" stroke="black" points="805.5,-142 714.5,-142 714.5,-106 805.5,-106 805.5,-142"/>
<text text-anchor="middle" x="760" y="-121.2" font-family="Courier,monospace" font-size="11.00">SRestClient</text>
</g>
<!-- \\SRestClient&#45;&gt;\\SlightPHP\\Rest_Http -->
<g id="edge1" class="edge"><title>\\SRestClient&#45;&gt;\\SlightPHP\\Rest_Http</title>
<path fill="none" stroke="black" d="M714.333,-115.294C673.347,-107.305 612.805,-95.5044 570.845,-87.3257"/>
<polygon fill="none" stroke="black" points="571.351,-83.8586 560.866,-85.3807 570.012,-90.7293 571.351,-83.8586"/>
</g>
<!-- \\SLunar -->
<g id="node24" class="node"><title>\\SLunar</title>
<polygon fill="none" stroke="black" points="788.5,-1006 731.5,-1006 731.5,-970 788.5,-970 788.5,-1006"/>
<text text-anchor="middle" x="760" y="-985.2" font-family="Courier,monospace" font-size="11.00">SLunar</text>
</g>
<!-- \\SHttp -->
<g id="node25" class="node"><title>\\SHttp</title>
<polygon fill="none" stroke="black" points="787,-952 733,-952 733,-916 787,-916 787,-952"/>
<text text-anchor="middle" x="760" y="-931.2" font-family="Courier,monospace" font-size="11.00">SHttp</text>
</g>
<!-- \\SLog -->
<g id="node26" class="node"><title>\\SLog</title>
<polygon fill="none" stroke="black" points="787,-898 733,-898 733,-862 787,-862 787,-898"/>
<text text-anchor="middle" x="760" y="-877.2" font-family="Courier,monospace" font-size="11.00">SLog</text>
</g>
<!-- \\SLanguage -->
<g id="node27" class="node"><title>\\SLanguage</title>
<polygon fill="none" stroke="black" points="798.5,-844 721.5,-844 721.5,-808 798.5,-808 798.5,-844"/>
<text text-anchor="middle" x="760" y="-823.2" font-family="Courier,monospace" font-size="11.00">SLanguage</text>
</g>
<!-- \\SUtil -->
<g id="node28" class="node"><title>\\SUtil</title>
<polygon fill="none" stroke="black" points="787,-790 733,-790 733,-754 787,-754 787,-790"/>
<text text-anchor="middle" x="760" y="-769.2" font-family="Courier,monospace" font-size="11.00">SUtil</text>
</g>
<!-- \\STpl -->
<g id="node29" class="node"><title>\\STpl</title>
<polygon fill="none" stroke="black" points="787,-1060 733,-1060 733,-1024 787,-1024 787,-1060"/>
<text text-anchor="middle" x="760" y="-1039.2" font-family="Courier,monospace" font-size="11.00">STpl</text>
</g>
<!-- \\STpl&#45;&gt;\\SlightPHP\\Tpl -->
<g id="edge2" class="edge"><title>\\STpl&#45;&gt;\\SlightPHP\\Tpl</title>
<path fill="none" stroke="black" d="M732.842,-1030.92C690.402,-1012.93 606.481,-977.373 558.627,-957.096"/>
<polygon fill="none" stroke="black" points="559.848,-953.812 549.275,-953.133 557.117,-960.258 559.848,-953.812"/>
</g>
<!-- \\SJson -->
<g id="node30" class="node"><title>\\SJson</title>
<polygon fill="none" stroke="black" points="787,-682 733,-682 733,-646 787,-646 787,-682"/>
<text text-anchor="middle" x="760" y="-661.2" font-family="Courier,monospace" font-size="11.00">SJson</text>
</g>
<!-- \\SRestServer -->
<g id="node31" class="node"><title>\\SRestServer</title>
<polygon fill="none" stroke="black" points="805.5,-628 714.5,-628 714.5,-592 805.5,-592 805.5,-628"/>
<text text-anchor="start" x="726" y="-613.2" font-family="Courier,monospace" font-size="11.00">«abstract»</text>
<text text-anchor="start" x="722.5" y="-601.2" font-family="Courier,monospace" font-size="11.00">SRestServer</text>
</g>
<!-- \\SThumbnail -->
<g id="node32" class="node"><title>\\SThumbnail</title>
<polygon fill="none" stroke="black" points="802,-736 718,-736 718,-700 802,-700 802,-736"/>
<text text-anchor="middle" x="760" y="-715.2" font-family="Courier,monospace" font-size="11.00">SThumbnail</text>
</g>
<!-- \\SThumbnail&#45;&gt;\\SlightPHP\\WMThumbnail -->
<g id="edge3" class="edge"><title>\\SThumbnail&#45;&gt;\\SlightPHP\\WMThumbnail</title>
<path fill="none" stroke="black" d="M724.784,-736.102C720.94,-738.825 717.245,-741.803 714,-745 670.771,-787.582 691.413,-825.782 642,-861 623.384,-874.268 599.318,-881.148 577.704,-884.668"/>
<polygon fill="none" stroke="black" points="577.058,-881.224 567.651,-886.099 578.045,-888.154 577.058,-881.224"/>
</g>
<!-- \\SError -->
<g id="node33" class="node"><title>\\SError</title>
<polygon fill="none" stroke="black" points="788.5,-520 731.5,-520 731.5,-484 788.5,-484 788.5,-520"/>
<text text-anchor="middle" x="760" y="-499.2" font-family="Courier,monospace" font-size="11.00">SError</text>
</g>
<!-- \\SCache -->
<g id="node34" class="node"><title>\\SCache</title>
<polygon fill="none" stroke="black" points="788.5,-88 731.5,-88 731.5,-52 788.5,-52 788.5,-88"/>
<text text-anchor="middle" x="760" y="-67.2" font-family="Courier,monospace" font-size="11.00">SCache</text>
</g>
<!-- \\SlightPHP\\Cache_MemCache -->
<g id="node42" class="node"><title>\\SlightPHP\\Cache_MemCache</title>
<ellipse fill="none" stroke="black" cx="522" cy="-18" rx="120.479" ry="18"/>
<text text-anchor="middle" x="522" y="-14.3" font-family="Times,serif" font-size="14.00" fill="gray">\SlightPHP\Cache_MemCache</text>
</g>
<!-- \\SCache&#45;&gt;\\SlightPHP\\Cache_MemCache -->
<g id="edge4" class="edge"><title>\\SCache&#45;&gt;\\SlightPHP\\Cache_MemCache</title>
<path fill="none" stroke="black" d="M731.466,-63.9332C699.588,-56.9093 645.697,-45.035 600.695,-35.1192"/>
<polygon fill="none" stroke="black" points="601.169,-31.6398 590.65,-32.906 599.663,-38.4759 601.169,-31.6398"/>
</g>
<!-- \\SRedis -->
<g id="node35" class="node"><title>\\SRedis</title>
<polygon fill="none" stroke="black" points="788.5,-412 731.5,-412 731.5,-376 788.5,-376 788.5,-412"/>
<text text-anchor="middle" x="760" y="-391.2" font-family="Courier,monospace" font-size="11.00">SRedis</text>
</g>
<!-- \\SSphinx -->
<g id="node36" class="node"><title>\\SSphinx</title>
<polygon fill="none" stroke="black" points="792,-574 728,-574 728,-538 792,-538 792,-574"/>
<text text-anchor="middle" x="760" y="-553.2" font-family="Courier,monospace" font-size="11.00">SSphinx</text>
</g>
<!-- \\SSphinx&#45;&gt;\\SlightPHP\\SphinxClient -->
<g id="edge5" class="edge"><title>\\SSphinx&#45;&gt;\\SlightPHP\\SphinxClient</title>
<path fill="none" stroke="black" d="M727.949,-571.041C722.846,-574.469 717.945,-578.461 714,-583 660.174,-644.93 704.934,-700.351 642,-753 625.174,-767.076 602.488,-774.183 581.437,-777.654"/>
<polygon fill="none" stroke="black" points="580.684,-774.226 571.267,-779.081 581.657,-781.158 580.684,-774.226"/>
</g>
<!-- \\SCaptcha -->
<g id="node37" class="node"><title>\\SCaptcha</title>
<polygon fill="none" stroke="black" points="795.5,-466 724.5,-466 724.5,-430 795.5,-430 795.5,-466"/>
<text text-anchor="middle" x="760" y="-445.2" font-family="Courier,monospace" font-size="11.00">SCaptcha</text>
</g>
<!-- \\SCaptcha&#45;&gt;\\SlightPHP\\SimpleCaptcha -->
<g id="edge9" class="edge"><title>\\SCaptcha&#45;&gt;\\SlightPHP\\SimpleCaptcha</title>
<path fill="none" stroke="black" d="M724.284,-465.633C720.526,-468.437 716.988,-471.562 714,-475 660.174,-536.93 704.934,-592.351 642,-645 625.945,-658.431 604.556,-665.516 584.343,-669.154"/>
<polygon fill="none" stroke="black" points="583.578,-665.73 574.229,-670.716 584.646,-672.648 583.578,-665.73"/>
</g>
<!-- \\SRoute -->
<g id="node38" class="node"><title>\\SRoute</title>
<polygon fill="none" stroke="black" points="788.5,-250 731.5,-250 731.5,-214 788.5,-214 788.5,-250"/>
<text text-anchor="middle" x="760" y="-229.2" font-family="Courier,monospace" font-size="11.00">SRoute</text>
</g>
<!-- \\SConfig -->
<g id="node39" class="node"><title>\\SConfig</title>
<polygon fill="none" stroke="black" points="792,-196 728,-196 728,-160 792,-160 792,-196"/>
<text text-anchor="middle" x="760" y="-175.2" font-family="Courier,monospace" font-size="11.00">SConfig</text>
</g>
<!-- \\SMail -->
<g id="node40" class="node"><title>\\SMail</title>
<polygon fill="none" stroke="black" points="787,-358 733,-358 733,-322 787,-322 787,-358"/>
<text text-anchor="middle" x="760" y="-337.2" font-family="Courier,monospace" font-size="11.00">SMail</text>
</g>
<!-- \\SMail&#45;&gt;\\SlightPHP\\PHPMailer -->
<g id="edge14" class="edge"><title>\\SMail&#45;&gt;\\SlightPHP\\PHPMailer</title>
<path fill="none" stroke="black" d="M732.657,-348.436C709.038,-355.866 673.374,-366.758 642,-375 618.651,-381.134 592.51,-387.157 570.689,-391.952"/>
<polygon fill="none" stroke="black" points="569.701,-388.585 560.675,-394.134 571.191,-395.425 569.701,-388.585"/>
</g>
<!-- \\SDb -->
<g id="node41" class="node"><title>\\SDb</title>
<polygon fill="none" stroke="black" points="787,-304 733,-304 733,-268 787,-268 787,-304"/>
<text text-anchor="middle" x="760" y="-283.2" font-family="Courier,monospace" font-size="11.00">SDb</text>
</g>
<!-- \\SDb&#45;&gt;\\SlightPHP\\Db -->
<g id="edge16" class="edge"><title>\\SDb&#45;&gt;\\SlightPHP\\Db</title>
<path fill="none" stroke="black" d="M732.657,-294.436C709.038,-301.866 673.374,-312.758 642,-321 614.335,-328.268 582.75,-335.38 559.075,-340.479"/>
<polygon fill="none" stroke="black" points="558.171,-337.093 549.123,-342.604 559.633,-343.938 558.171,-337.093"/>
</g>
</g>
</svg>
